G04 #@! TF.FileFunction,Copper,L1,Top,Signal*
%FSLAX46Y46*%
G04 Gerber Fmt 4.6, Leading zero omitted, Abs format (unit mm)*
G04 Created by KiCad (PCBNEW 4.0.2-stable) date Sat 04 Jun 2016 09:29:27 PM CEST*
%MOMM*%
G01*
G04 APERTURE LIST*
%ADD10C,0.100000*%
%ADD11R,1.600200X3.599180*%
%ADD12R,3.599180X1.600200*%
%ADD13R,2.000000X2.000000*%
%ADD14C,2.000000*%
%ADD15R,1.727200X1.727200*%
%ADD16O,1.727200X1.727200*%
%ADD17R,1.800860X0.800100*%
%ADD18R,1.500000X1.300000*%
%ADD19O,2.032000X2.540000*%
%ADD20O,1.600000X1.600000*%
%ADD21R,1.060000X0.650000*%
%ADD22C,1.524000*%
%ADD23O,1.981200X3.962400*%
%ADD24O,3.962400X1.981200*%
%ADD25C,0.889000*%
%ADD26C,0.200000*%
%ADD27C,1.000000*%
%ADD28C,0.500000*%
%ADD29C,0.800000*%
%ADD30C,0.050000*%
G04 APERTURE END LIST*
D10*
D11*
X108600000Y-115950820D03*
X108600000Y-110449180D03*
D12*
X137991180Y-121004000D03*
X143492820Y-121004000D03*
X146627180Y-113130000D03*
X152128820Y-113130000D03*
D13*
X156490000Y-116432000D03*
D14*
X156490000Y-113892000D03*
D15*
X113260000Y-76060000D03*
D16*
X113260000Y-73520000D03*
X115800000Y-76060000D03*
X115800000Y-73520000D03*
X118340000Y-76060000D03*
X118340000Y-73520000D03*
X120880000Y-76060000D03*
X120880000Y-73520000D03*
X123420000Y-76060000D03*
X123420000Y-73520000D03*
X125960000Y-76060000D03*
X125960000Y-73520000D03*
X128500000Y-76060000D03*
X128500000Y-73520000D03*
X131040000Y-76060000D03*
X131040000Y-73520000D03*
X133580000Y-76060000D03*
X133580000Y-73520000D03*
X136120000Y-76060000D03*
X136120000Y-73520000D03*
X138660000Y-76060000D03*
X138660000Y-73520000D03*
X141200000Y-76060000D03*
X141200000Y-73520000D03*
X143740000Y-76060000D03*
X143740000Y-73520000D03*
X146280000Y-76060000D03*
X146280000Y-73520000D03*
X148820000Y-76060000D03*
X148820000Y-73520000D03*
X151360000Y-76060000D03*
X151360000Y-73520000D03*
X153900000Y-76060000D03*
X153900000Y-73520000D03*
X156440000Y-76060000D03*
X156440000Y-73520000D03*
X158980000Y-76060000D03*
X158980000Y-73520000D03*
X161520000Y-76060000D03*
X161520000Y-73520000D03*
D17*
X112301140Y-80250000D03*
X112301140Y-78350000D03*
X109298860Y-79300000D03*
D18*
X111550000Y-81500000D03*
X114250000Y-81500000D03*
X112150000Y-81500000D03*
X109450000Y-81500000D03*
D19*
X119300000Y-114270000D03*
X116760000Y-114270000D03*
X121840000Y-114270000D03*
D20*
X115430000Y-107850000D03*
X117970000Y-107850000D03*
X120510000Y-107850000D03*
X123050000Y-107850000D03*
X125590000Y-107850000D03*
X128130000Y-107850000D03*
X130670000Y-107850000D03*
X133210000Y-107850000D03*
X135750000Y-107850000D03*
X138290000Y-107850000D03*
X140830000Y-107850000D03*
X143370000Y-107850000D03*
X145910000Y-107850000D03*
X148450000Y-107850000D03*
X150990000Y-107850000D03*
X153530000Y-107850000D03*
X156070000Y-107850000D03*
X158610000Y-107850000D03*
X161150000Y-107850000D03*
X163690000Y-107850000D03*
X163690000Y-92610000D03*
X161150000Y-92610000D03*
X158610000Y-92610000D03*
X156070000Y-92610000D03*
X153530000Y-92610000D03*
X150990000Y-92610000D03*
X148450000Y-92610000D03*
X145910000Y-92610000D03*
X143370000Y-92610000D03*
X140830000Y-92610000D03*
X138290000Y-92610000D03*
X135750000Y-92610000D03*
X133210000Y-92610000D03*
X130670000Y-92610000D03*
X128130000Y-92610000D03*
X125590000Y-92610000D03*
X123050000Y-92610000D03*
X120510000Y-92610000D03*
X117970000Y-92610000D03*
X115430000Y-92610000D03*
D19*
X135000000Y-114180000D03*
X132460000Y-114180000D03*
X137540000Y-114180000D03*
D21*
X113900000Y-78450000D03*
X113900000Y-79400000D03*
X113900000Y-80350000D03*
X116100000Y-80350000D03*
X116100000Y-78450000D03*
X116100000Y-79400000D03*
D22*
X130660000Y-82800000D03*
X128120000Y-82800000D03*
X133200000Y-82800000D03*
X120960000Y-82500000D03*
X118420000Y-82500000D03*
X123500000Y-82500000D03*
D23*
X149378000Y-123036000D03*
X154378000Y-123036000D03*
X126518000Y-123036000D03*
X131518000Y-123036000D03*
X115088000Y-123036000D03*
X120088000Y-123036000D03*
D24*
X165126000Y-111860000D03*
X165126000Y-116860000D03*
X165380000Y-88365000D03*
X165380000Y-83365000D03*
D25*
X115376902Y-81240914D03*
X108600000Y-110449180D03*
X111140000Y-73870000D03*
X116780000Y-111400000D03*
X143790000Y-123798000D03*
X127788000Y-114146000D03*
X107060000Y-81400000D03*
X160935000Y-88365000D03*
X137900000Y-83900000D03*
X126100000Y-86500000D03*
X157760000Y-86460000D03*
D26*
X114250000Y-81500000D02*
X115117816Y-81500000D01*
X115117816Y-81500000D02*
X115376902Y-81240914D01*
D27*
X152128820Y-113130000D02*
X153258820Y-113130000D01*
D28*
X108679488Y-119350000D02*
X118260000Y-119350000D01*
X118260000Y-119350000D02*
X118360000Y-119250000D01*
X106830000Y-110919080D02*
X106830000Y-117500512D01*
X106830000Y-117500512D02*
X108679488Y-119350000D01*
X108600000Y-110449180D02*
X107299900Y-110449180D01*
X107299900Y-110449180D02*
X106830000Y-110919080D01*
D29*
X108600000Y-111448670D02*
X108600000Y-110449180D01*
D27*
X112301140Y-78281140D02*
X111790000Y-77770000D01*
X111790000Y-77770000D02*
X111270000Y-77250000D01*
D26*
X116100000Y-79400000D02*
X115370000Y-79400000D01*
X115370000Y-79400000D02*
X114680001Y-78710001D01*
X114680001Y-78710001D02*
X114680001Y-77924999D01*
X114680001Y-77924999D02*
X114525002Y-77770000D01*
X114525002Y-77770000D02*
X111790000Y-77770000D01*
D27*
X111270000Y-77250000D02*
X111270000Y-74000000D01*
X111270000Y-74000000D02*
X111140000Y-73870000D01*
X112301140Y-78350000D02*
X112301140Y-78281140D01*
D28*
X114410920Y-111440000D02*
X116740000Y-111440000D01*
X116740000Y-111440000D02*
X116780000Y-111400000D01*
X108600000Y-115950820D02*
X109900100Y-115950820D01*
X109900100Y-115950820D02*
X114410920Y-111440000D01*
D27*
X108600000Y-115950820D02*
X108600000Y-116950310D01*
X137991180Y-121004000D02*
X138202000Y-121004000D01*
X138202000Y-121004000D02*
X140996000Y-123798000D01*
X140996000Y-123798000D02*
X143790000Y-123798000D01*
X136932000Y-118464000D02*
X136932000Y-119944820D01*
X136932000Y-119944820D02*
X137991180Y-121004000D01*
X146627180Y-115372820D02*
X146627180Y-113130000D01*
X143536000Y-118464000D02*
X146627180Y-115372820D01*
X128550000Y-118464000D02*
X136932000Y-118464000D01*
X136932000Y-118464000D02*
X143536000Y-118464000D01*
X127788000Y-117702000D02*
X128550000Y-118464000D01*
X127788000Y-114146000D02*
X127788000Y-117702000D01*
D26*
X109298860Y-79300000D02*
X110399290Y-79300000D01*
X110399290Y-79300000D02*
X110549999Y-79450709D01*
X110549999Y-82350001D02*
X110950009Y-82750011D01*
X110549999Y-79450709D02*
X110549999Y-82350001D01*
X110950009Y-82750011D02*
X115404977Y-82750011D01*
X116830000Y-78450000D02*
X116100000Y-78450000D01*
X115404977Y-82750011D02*
X116880001Y-81274987D01*
X116880001Y-81274987D02*
X116880001Y-78500001D01*
X116880001Y-78500001D02*
X116830000Y-78450000D01*
D27*
X107060000Y-80771383D02*
X107327097Y-80771383D01*
X107327097Y-80771383D02*
X108798480Y-79300000D01*
X108798480Y-79300000D02*
X109298860Y-79300000D01*
X107060000Y-81400000D02*
X107060000Y-80771383D01*
X146488820Y-113268360D02*
X146627180Y-113130000D01*
D26*
X116100000Y-80350000D02*
X116100000Y-81500002D01*
X115200001Y-82400001D02*
X113299999Y-82400001D01*
X116100000Y-81500002D02*
X115200001Y-82400001D01*
X113299999Y-82400001D02*
X112550001Y-81650003D01*
X112550001Y-81650003D02*
X112550001Y-80649999D01*
X112550001Y-80649999D02*
X112500001Y-80599999D01*
X112500001Y-80599999D02*
X111320001Y-80599999D01*
X111320001Y-80599999D02*
X111670000Y-80250000D01*
X111670000Y-80250000D02*
X112301140Y-80250000D01*
X113900000Y-80350000D02*
X113900000Y-79825000D01*
X113900000Y-79825000D02*
X113674949Y-79599949D01*
X113674949Y-79599949D02*
X111200709Y-79599949D01*
X111200709Y-79599949D02*
X110969991Y-79830667D01*
X110969991Y-79830667D02*
X110969991Y-80919991D01*
X110969991Y-80919991D02*
X111149999Y-81099999D01*
X111149999Y-81099999D02*
X111149999Y-81500000D01*
X113900000Y-79400000D02*
X113900000Y-80350000D01*
X113900000Y-78450000D02*
X113900000Y-79400000D01*
D27*
X156490000Y-83920000D02*
X159030000Y-83920000D01*
X138500000Y-83920000D02*
X156490000Y-83920000D01*
X160935000Y-85825000D02*
X160935000Y-88365000D01*
X159030000Y-83920000D02*
X160935000Y-85825000D01*
X138500000Y-84000000D02*
X138500000Y-83920000D01*
X138420000Y-83920000D02*
X138500000Y-84000000D01*
X137920000Y-83920000D02*
X138420000Y-83920000D01*
X137900000Y-83900000D02*
X137920000Y-83920000D01*
X138500000Y-83920000D02*
X137800000Y-83920000D01*
X126100000Y-86500000D02*
X126140000Y-86460000D01*
X126140000Y-86460000D02*
X129100000Y-86460000D01*
X129100000Y-86460000D02*
X157760000Y-86460000D01*
D30*
G36*
X163221600Y-78007560D02*
X163225333Y-78016572D01*
X163442106Y-78340996D01*
X163449004Y-78347894D01*
X163773428Y-78564667D01*
X163782440Y-78568400D01*
X164165123Y-78644520D01*
X164170000Y-78645000D01*
X168667536Y-78645000D01*
X168845000Y-78680300D01*
X168845000Y-120059700D01*
X168667536Y-120095000D01*
X163670000Y-120095000D01*
X163665123Y-120095480D01*
X163282440Y-120171600D01*
X163273428Y-120175333D01*
X162949004Y-120392106D01*
X162942106Y-120399004D01*
X162725333Y-120723428D01*
X162721600Y-120732440D01*
X162645480Y-121115123D01*
X162645000Y-121120000D01*
X162645000Y-126117536D01*
X162570330Y-126492929D01*
X162568946Y-126495000D01*
X112271054Y-126495000D01*
X112269670Y-126492929D01*
X112195000Y-126117536D01*
X112195000Y-121986505D01*
X113072400Y-121986505D01*
X113072400Y-124085495D01*
X113225828Y-124856832D01*
X113662756Y-125510739D01*
X114316663Y-125947667D01*
X115088000Y-126101095D01*
X115859337Y-125947667D01*
X116513244Y-125510739D01*
X116950172Y-124856832D01*
X117103600Y-124085495D01*
X117103600Y-121986505D01*
X124502400Y-121986505D01*
X124502400Y-124085495D01*
X124655828Y-124856832D01*
X125092756Y-125510739D01*
X125746663Y-125947667D01*
X126518000Y-126101095D01*
X127289337Y-125947667D01*
X127943244Y-125510739D01*
X128380172Y-124856832D01*
X128533600Y-124085495D01*
X128533600Y-121986505D01*
X128380172Y-121215168D01*
X127943244Y-120561261D01*
X127289337Y-120124333D01*
X126518000Y-119970905D01*
X125746663Y-120124333D01*
X125092756Y-120561261D01*
X124655828Y-121215168D01*
X124502400Y-121986505D01*
X117103600Y-121986505D01*
X116950172Y-121215168D01*
X116513244Y-120561261D01*
X115859337Y-120124333D01*
X115088000Y-119970905D01*
X114316663Y-120124333D01*
X113662756Y-120561261D01*
X113225828Y-121215168D01*
X113072400Y-121986505D01*
X112195000Y-121986505D01*
X112195000Y-121120000D01*
X112194520Y-121115123D01*
X112118400Y-120732440D01*
X112114667Y-120723428D01*
X111897894Y-120399004D01*
X111890996Y-120392106D01*
X111566572Y-120175333D01*
X111557560Y-120171600D01*
X111174877Y-120095480D01*
X111170000Y-120095000D01*
X106672464Y-120095000D01*
X106297071Y-120020330D01*
X105995000Y-119818493D01*
X105995000Y-114151230D01*
X106754820Y-114151230D01*
X106754820Y-117750410D01*
X106826292Y-118130252D01*
X107050779Y-118479114D01*
X107393305Y-118713152D01*
X107799900Y-118795490D01*
X109400100Y-118795490D01*
X109779942Y-118724018D01*
X110128804Y-118499531D01*
X110362842Y-118157005D01*
X110445180Y-117750410D01*
X110445180Y-117090574D01*
X110801661Y-116852381D01*
X114939042Y-112715000D01*
X115191734Y-112715000D01*
X114874362Y-113189981D01*
X114719000Y-113971038D01*
X114719000Y-114568962D01*
X114874362Y-115350019D01*
X115316795Y-116012167D01*
X115978943Y-116454600D01*
X116760000Y-116609962D01*
X117541057Y-116454600D01*
X118030000Y-116127899D01*
X118518943Y-116454600D01*
X119300000Y-116609962D01*
X120081057Y-116454600D01*
X120570000Y-116127899D01*
X121058943Y-116454600D01*
X121840000Y-116609962D01*
X122621057Y-116454600D01*
X123283205Y-116012167D01*
X123725638Y-115350019D01*
X123881000Y-114568962D01*
X123881000Y-114146000D01*
X126263000Y-114146000D01*
X126263000Y-117702000D01*
X126379084Y-118285592D01*
X126709662Y-118780338D01*
X127471662Y-119542338D01*
X127966408Y-119872916D01*
X128550000Y-119989000D01*
X135190029Y-119989000D01*
X135146510Y-120203900D01*
X135146510Y-121804100D01*
X135217982Y-122183942D01*
X135442469Y-122532804D01*
X135784995Y-122766842D01*
X136191590Y-122849180D01*
X137890504Y-122849180D01*
X139917662Y-124876338D01*
X140412408Y-125206916D01*
X140996000Y-125323000D01*
X143790000Y-125323000D01*
X144067798Y-125267742D01*
X144081019Y-125267754D01*
X144093346Y-125262661D01*
X144373592Y-125206916D01*
X144609096Y-125049558D01*
X144621317Y-125044508D01*
X144630758Y-125035084D01*
X144868338Y-124876338D01*
X145025696Y-124640835D01*
X145035055Y-124631492D01*
X145040171Y-124619171D01*
X145198916Y-124381592D01*
X145254173Y-124103796D01*
X145259244Y-124091584D01*
X145259256Y-124078245D01*
X145315000Y-123798000D01*
X145259742Y-123520202D01*
X145259754Y-123506981D01*
X145254661Y-123494654D01*
X145198916Y-123214408D01*
X145041558Y-122978904D01*
X145036508Y-122966683D01*
X145027084Y-122957242D01*
X144868338Y-122719662D01*
X144632835Y-122562304D01*
X144623492Y-122552945D01*
X144611171Y-122547829D01*
X144373592Y-122389084D01*
X144095796Y-122333827D01*
X144083584Y-122328756D01*
X144070245Y-122328744D01*
X143790000Y-122273000D01*
X141627676Y-122273000D01*
X141341181Y-121986505D01*
X147362400Y-121986505D01*
X147362400Y-124085495D01*
X147515828Y-124856832D01*
X147952756Y-125510739D01*
X148606663Y-125947667D01*
X149378000Y-126101095D01*
X150149337Y-125947667D01*
X150803244Y-125510739D01*
X151240172Y-124856832D01*
X151393600Y-124085495D01*
X151393600Y-121986505D01*
X151240172Y-121215168D01*
X150803244Y-120561261D01*
X150149337Y-120124333D01*
X149378000Y-119970905D01*
X148606663Y-120124333D01*
X147952756Y-120561261D01*
X147515828Y-121215168D01*
X147362400Y-121986505D01*
X141341181Y-121986505D01*
X140835850Y-121481174D01*
X140835850Y-120203900D01*
X140795414Y-119989000D01*
X143536000Y-119989000D01*
X144119592Y-119872916D01*
X144614338Y-119542338D01*
X147705518Y-116451158D01*
X148036096Y-115956412D01*
X148140408Y-115432000D01*
X154444920Y-115432000D01*
X154444920Y-117432000D01*
X154516392Y-117811842D01*
X154740879Y-118160704D01*
X155083405Y-118394742D01*
X155490000Y-118477080D01*
X157490000Y-118477080D01*
X157869842Y-118405608D01*
X158218704Y-118181121D01*
X158452742Y-117838595D01*
X158535080Y-117432000D01*
X158535080Y-116860000D01*
X162060905Y-116860000D01*
X162214333Y-117631337D01*
X162651261Y-118285244D01*
X163305168Y-118722172D01*
X164076505Y-118875600D01*
X166175495Y-118875600D01*
X166946832Y-118722172D01*
X167600739Y-118285244D01*
X168037667Y-117631337D01*
X168191095Y-116860000D01*
X168037667Y-116088663D01*
X167600739Y-115434756D01*
X166946832Y-114997828D01*
X166175495Y-114844400D01*
X164076505Y-114844400D01*
X163305168Y-114997828D01*
X162651261Y-115434756D01*
X162214333Y-116088663D01*
X162060905Y-116860000D01*
X158535080Y-116860000D01*
X158535080Y-115432000D01*
X158463608Y-115052158D01*
X158303934Y-114804018D01*
X158514648Y-114296565D01*
X158515351Y-113490970D01*
X158207712Y-112746428D01*
X157638568Y-112176290D01*
X156894565Y-111867352D01*
X156088970Y-111866649D01*
X155344428Y-112174288D01*
X154774290Y-112743432D01*
X154465352Y-113487435D01*
X154464649Y-114293030D01*
X154676818Y-114806517D01*
X154527258Y-115025405D01*
X154444920Y-115432000D01*
X148140408Y-115432000D01*
X148152180Y-115372820D01*
X148152180Y-114975180D01*
X148426770Y-114975180D01*
X148806612Y-114903708D01*
X149155474Y-114679221D01*
X149389512Y-114336695D01*
X149471850Y-113930100D01*
X149471850Y-112329900D01*
X149400378Y-111950058D01*
X149342428Y-111860000D01*
X162060905Y-111860000D01*
X162214333Y-112631337D01*
X162651261Y-113285244D01*
X163305168Y-113722172D01*
X164076505Y-113875600D01*
X166175495Y-113875600D01*
X166946832Y-113722172D01*
X167600739Y-113285244D01*
X168037667Y-112631337D01*
X168191095Y-111860000D01*
X168037667Y-111088663D01*
X167600739Y-110434756D01*
X166946832Y-109997828D01*
X166175495Y-109844400D01*
X164076505Y-109844400D01*
X163305168Y-109997828D01*
X162651261Y-110434756D01*
X162214333Y-111088663D01*
X162060905Y-111860000D01*
X149342428Y-111860000D01*
X149175891Y-111601196D01*
X148833365Y-111367158D01*
X148426770Y-111284820D01*
X144827590Y-111284820D01*
X144447748Y-111356292D01*
X144098886Y-111580779D01*
X143864848Y-111923305D01*
X143782510Y-112329900D01*
X143782510Y-113930100D01*
X143853982Y-114309942D01*
X144078469Y-114658804D01*
X144420995Y-114892842D01*
X144827590Y-114975180D01*
X144868144Y-114975180D01*
X142904324Y-116939000D01*
X129313000Y-116939000D01*
X129313000Y-114146000D01*
X129260296Y-113881038D01*
X130419000Y-113881038D01*
X130419000Y-114478962D01*
X130574362Y-115260019D01*
X131016795Y-115922167D01*
X131678943Y-116364600D01*
X132460000Y-116519962D01*
X133241057Y-116364600D01*
X133730000Y-116037899D01*
X134218943Y-116364600D01*
X135000000Y-116519962D01*
X135781057Y-116364600D01*
X136270000Y-116037899D01*
X136758943Y-116364600D01*
X137540000Y-116519962D01*
X138321057Y-116364600D01*
X138983205Y-115922167D01*
X139425638Y-115260019D01*
X139581000Y-114478962D01*
X139581000Y-113881038D01*
X139425638Y-113099981D01*
X138983205Y-112437833D01*
X138321057Y-111995400D01*
X137540000Y-111840038D01*
X136758943Y-111995400D01*
X136270000Y-112322101D01*
X135781057Y-111995400D01*
X135000000Y-111840038D01*
X134218943Y-111995400D01*
X133730000Y-112322101D01*
X133241057Y-111995400D01*
X132460000Y-111840038D01*
X131678943Y-111995400D01*
X131016795Y-112437833D01*
X130574362Y-113099981D01*
X130419000Y-113881038D01*
X129260296Y-113881038D01*
X129257742Y-113868202D01*
X129257754Y-113854981D01*
X129252661Y-113842654D01*
X129196916Y-113562408D01*
X129039558Y-113326904D01*
X129034508Y-113314683D01*
X129025084Y-113305242D01*
X128866338Y-113067662D01*
X128630835Y-112910304D01*
X128621492Y-112900945D01*
X128609171Y-112895829D01*
X128371592Y-112737084D01*
X128093796Y-112681827D01*
X128081584Y-112676756D01*
X128068245Y-112676744D01*
X127788000Y-112621000D01*
X127510202Y-112676258D01*
X127496981Y-112676246D01*
X127484654Y-112681339D01*
X127204408Y-112737084D01*
X126968904Y-112894442D01*
X126956683Y-112899492D01*
X126947242Y-112908916D01*
X126709662Y-113067662D01*
X126552304Y-113303165D01*
X126542945Y-113312508D01*
X126537829Y-113324829D01*
X126379084Y-113562408D01*
X126323827Y-113840204D01*
X126318756Y-113852416D01*
X126318744Y-113865755D01*
X126263000Y-114146000D01*
X123881000Y-114146000D01*
X123881000Y-113971038D01*
X123725638Y-113189981D01*
X123283205Y-112527833D01*
X122621057Y-112085400D01*
X121840000Y-111930038D01*
X121058943Y-112085400D01*
X120570000Y-112412101D01*
X120081057Y-112085400D01*
X119300000Y-111930038D01*
X118518943Y-112085400D01*
X118030000Y-112412101D01*
X117919857Y-112338506D01*
X118025055Y-112233492D01*
X118249244Y-111693584D01*
X118249754Y-111108981D01*
X118026508Y-110568683D01*
X117613492Y-110154945D01*
X117073584Y-109930756D01*
X116488981Y-109930246D01*
X115948683Y-110153492D01*
X115937155Y-110165000D01*
X114410920Y-110165000D01*
X113922999Y-110262054D01*
X113509359Y-110538439D01*
X110335612Y-113712186D01*
X110149221Y-113422526D01*
X109806695Y-113188488D01*
X109400100Y-113106150D01*
X107799900Y-113106150D01*
X107420058Y-113177622D01*
X107071196Y-113402109D01*
X106837158Y-113744635D01*
X106754820Y-114151230D01*
X105995000Y-114151230D01*
X105995000Y-109175876D01*
X106000123Y-109150123D01*
X106025876Y-109145000D01*
X108920000Y-109145000D01*
X109023844Y-109124344D01*
X109129721Y-109124344D01*
X109512404Y-109048224D01*
X109899921Y-108887710D01*
X110224342Y-108670938D01*
X110224345Y-108670937D01*
X110520937Y-108374345D01*
X110737710Y-108049921D01*
X110835329Y-107814246D01*
X113605000Y-107814246D01*
X113605000Y-107885754D01*
X113743920Y-108584151D01*
X114139530Y-109176224D01*
X114731603Y-109571834D01*
X115430000Y-109710754D01*
X116128397Y-109571834D01*
X116700000Y-109189902D01*
X117271603Y-109571834D01*
X117970000Y-109710754D01*
X118668397Y-109571834D01*
X119240000Y-109189902D01*
X119811603Y-109571834D01*
X120510000Y-109710754D01*
X121208397Y-109571834D01*
X121780000Y-109189902D01*
X122351603Y-109571834D01*
X123050000Y-109710754D01*
X123748397Y-109571834D01*
X124320000Y-109189902D01*
X124891603Y-109571834D01*
X125590000Y-109710754D01*
X126288397Y-109571834D01*
X126860000Y-109189902D01*
X127431603Y-109571834D01*
X128130000Y-109710754D01*
X128828397Y-109571834D01*
X129400000Y-109189902D01*
X129971603Y-109571834D01*
X130670000Y-109710754D01*
X131368397Y-109571834D01*
X131940000Y-109189902D01*
X132511603Y-109571834D01*
X133210000Y-109710754D01*
X133908397Y-109571834D01*
X134480000Y-109189902D01*
X135051603Y-109571834D01*
X135750000Y-109710754D01*
X136448397Y-109571834D01*
X137020000Y-109189902D01*
X137591603Y-109571834D01*
X138290000Y-109710754D01*
X138988397Y-109571834D01*
X139560000Y-109189902D01*
X140131603Y-109571834D01*
X140830000Y-109710754D01*
X141528397Y-109571834D01*
X142120470Y-109176224D01*
X142516080Y-108584151D01*
X142655000Y-107885754D01*
X142655000Y-107814246D01*
X144085000Y-107814246D01*
X144085000Y-107885754D01*
X144223920Y-108584151D01*
X144619530Y-109176224D01*
X145211603Y-109571834D01*
X145910000Y-109710754D01*
X146608397Y-109571834D01*
X147180000Y-109189902D01*
X147751603Y-109571834D01*
X148450000Y-109710754D01*
X149148397Y-109571834D01*
X149720000Y-109189902D01*
X150291603Y-109571834D01*
X150990000Y-109710754D01*
X151688397Y-109571834D01*
X152260000Y-109189902D01*
X152831603Y-109571834D01*
X153530000Y-109710754D01*
X154228397Y-109571834D01*
X154800000Y-109189902D01*
X155371603Y-109571834D01*
X156070000Y-109710754D01*
X156768397Y-109571834D01*
X157340000Y-109189902D01*
X157911603Y-109571834D01*
X158610000Y-109710754D01*
X159308397Y-109571834D01*
X159880000Y-109189902D01*
X160451603Y-109571834D01*
X161150000Y-109710754D01*
X161848397Y-109571834D01*
X162420000Y-109189902D01*
X162991603Y-109571834D01*
X163690000Y-109710754D01*
X164388397Y-109571834D01*
X164980470Y-109176224D01*
X165376080Y-108584151D01*
X165515000Y-107885754D01*
X165515000Y-107814246D01*
X165376080Y-107115849D01*
X164980470Y-106523776D01*
X164388397Y-106128166D01*
X163690000Y-105989246D01*
X162991603Y-106128166D01*
X162420000Y-106510098D01*
X161848397Y-106128166D01*
X161150000Y-105989246D01*
X160451603Y-106128166D01*
X159880000Y-106510098D01*
X159308397Y-106128166D01*
X158610000Y-105989246D01*
X157911603Y-106128166D01*
X157340000Y-106510098D01*
X156768397Y-106128166D01*
X156070000Y-105989246D01*
X155371603Y-106128166D01*
X154800000Y-106510098D01*
X154228397Y-106128166D01*
X153530000Y-105989246D01*
X152831603Y-106128166D01*
X152260000Y-106510098D01*
X151688397Y-106128166D01*
X150990000Y-105989246D01*
X150291603Y-106128166D01*
X149720000Y-106510098D01*
X149148397Y-106128166D01*
X148450000Y-105989246D01*
X147751603Y-106128166D01*
X147180000Y-106510098D01*
X146608397Y-106128166D01*
X145910000Y-105989246D01*
X145211603Y-106128166D01*
X144619530Y-106523776D01*
X144223920Y-107115849D01*
X144085000Y-107814246D01*
X142655000Y-107814246D01*
X142516080Y-107115849D01*
X142120470Y-106523776D01*
X141528397Y-106128166D01*
X140830000Y-105989246D01*
X140131603Y-106128166D01*
X139560000Y-106510098D01*
X138988397Y-106128166D01*
X138290000Y-105989246D01*
X137591603Y-106128166D01*
X137020000Y-106510098D01*
X136448397Y-106128166D01*
X135750000Y-105989246D01*
X135051603Y-106128166D01*
X134480000Y-106510098D01*
X133908397Y-106128166D01*
X133210000Y-105989246D01*
X132511603Y-106128166D01*
X131940000Y-106510098D01*
X131368397Y-106128166D01*
X130670000Y-105989246D01*
X129971603Y-106128166D01*
X129400000Y-106510098D01*
X128828397Y-106128166D01*
X128130000Y-105989246D01*
X127431603Y-106128166D01*
X126860000Y-106510098D01*
X126288397Y-106128166D01*
X125590000Y-105989246D01*
X124891603Y-106128166D01*
X124320000Y-106510098D01*
X123748397Y-106128166D01*
X123050000Y-105989246D01*
X122351603Y-106128166D01*
X121780000Y-106510098D01*
X121208397Y-106128166D01*
X120510000Y-105989246D01*
X119811603Y-106128166D01*
X119240000Y-106510098D01*
X118668397Y-106128166D01*
X117970000Y-105989246D01*
X117271603Y-106128166D01*
X116700000Y-106510098D01*
X116128397Y-106128166D01*
X115430000Y-105989246D01*
X114731603Y-106128166D01*
X114139530Y-106523776D01*
X113743920Y-107115849D01*
X113605000Y-107814246D01*
X110835329Y-107814246D01*
X110898224Y-107662404D01*
X110974344Y-107279721D01*
X110974344Y-107173844D01*
X110995000Y-107070000D01*
X110995000Y-92574246D01*
X113605000Y-92574246D01*
X113605000Y-92645754D01*
X113743920Y-93344151D01*
X114139530Y-93936224D01*
X114731603Y-94331834D01*
X115430000Y-94470754D01*
X116128397Y-94331834D01*
X116700000Y-93949902D01*
X117271603Y-94331834D01*
X117970000Y-94470754D01*
X118668397Y-94331834D01*
X119240000Y-93949902D01*
X119811603Y-94331834D01*
X120510000Y-94470754D01*
X121208397Y-94331834D01*
X121780000Y-93949902D01*
X122351603Y-94331834D01*
X123050000Y-94470754D01*
X123748397Y-94331834D01*
X124320000Y-93949902D01*
X124891603Y-94331834D01*
X125590000Y-94470754D01*
X126288397Y-94331834D01*
X126860000Y-93949902D01*
X127431603Y-94331834D01*
X128130000Y-94470754D01*
X128828397Y-94331834D01*
X129400000Y-93949902D01*
X129971603Y-94331834D01*
X130670000Y-94470754D01*
X131368397Y-94331834D01*
X131940000Y-93949902D01*
X132511603Y-94331834D01*
X133210000Y-94470754D01*
X133908397Y-94331834D01*
X134480000Y-93949902D01*
X135051603Y-94331834D01*
X135750000Y-94470754D01*
X136448397Y-94331834D01*
X137040470Y-93936224D01*
X137436080Y-93344151D01*
X137575000Y-92645754D01*
X137575000Y-92574246D01*
X139005000Y-92574246D01*
X139005000Y-92645754D01*
X139143920Y-93344151D01*
X139539530Y-93936224D01*
X140131603Y-94331834D01*
X140830000Y-94470754D01*
X141528397Y-94331834D01*
X142100000Y-93949902D01*
X142671603Y-94331834D01*
X143370000Y-94470754D01*
X144068397Y-94331834D01*
X144640000Y-93949902D01*
X145211603Y-94331834D01*
X145910000Y-94470754D01*
X146608397Y-94331834D01*
X147180000Y-93949902D01*
X147751603Y-94331834D01*
X148450000Y-94470754D01*
X149148397Y-94331834D01*
X149720000Y-93949902D01*
X150291603Y-94331834D01*
X150990000Y-94470754D01*
X151688397Y-94331834D01*
X152260000Y-93949902D01*
X152831603Y-94331834D01*
X153530000Y-94470754D01*
X154228397Y-94331834D01*
X154800000Y-93949902D01*
X155371603Y-94331834D01*
X156070000Y-94470754D01*
X156768397Y-94331834D01*
X157340000Y-93949902D01*
X157911603Y-94331834D01*
X158610000Y-94470754D01*
X159308397Y-94331834D01*
X159880000Y-93949902D01*
X160451603Y-94331834D01*
X161150000Y-94470754D01*
X161848397Y-94331834D01*
X162420000Y-93949902D01*
X162991603Y-94331834D01*
X163690000Y-94470754D01*
X164388397Y-94331834D01*
X164980470Y-93936224D01*
X165376080Y-93344151D01*
X165515000Y-92645754D01*
X165515000Y-92574246D01*
X165376080Y-91875849D01*
X164980470Y-91283776D01*
X164388397Y-90888166D01*
X163690000Y-90749246D01*
X162991603Y-90888166D01*
X162420000Y-91270098D01*
X161848397Y-90888166D01*
X161150000Y-90749246D01*
X160451603Y-90888166D01*
X159880000Y-91270098D01*
X159308397Y-90888166D01*
X158610000Y-90749246D01*
X157911603Y-90888166D01*
X157340000Y-91270098D01*
X156768397Y-90888166D01*
X156070000Y-90749246D01*
X155371603Y-90888166D01*
X154800000Y-91270098D01*
X154228397Y-90888166D01*
X153530000Y-90749246D01*
X152831603Y-90888166D01*
X152260000Y-91270098D01*
X151688397Y-90888166D01*
X150990000Y-90749246D01*
X150291603Y-90888166D01*
X149720000Y-91270098D01*
X149148397Y-90888166D01*
X148450000Y-90749246D01*
X147751603Y-90888166D01*
X147180000Y-91270098D01*
X146608397Y-90888166D01*
X145910000Y-90749246D01*
X145211603Y-90888166D01*
X144640000Y-91270098D01*
X144068397Y-90888166D01*
X143370000Y-90749246D01*
X142671603Y-90888166D01*
X142100000Y-91270098D01*
X141528397Y-90888166D01*
X140830000Y-90749246D01*
X140131603Y-90888166D01*
X139539530Y-91283776D01*
X139143920Y-91875849D01*
X139005000Y-92574246D01*
X137575000Y-92574246D01*
X137436080Y-91875849D01*
X137040470Y-91283776D01*
X136448397Y-90888166D01*
X135750000Y-90749246D01*
X135051603Y-90888166D01*
X134480000Y-91270098D01*
X133908397Y-90888166D01*
X133210000Y-90749246D01*
X132511603Y-90888166D01*
X131940000Y-91270098D01*
X131368397Y-90888166D01*
X130670000Y-90749246D01*
X129971603Y-90888166D01*
X129400000Y-91270098D01*
X128828397Y-90888166D01*
X128130000Y-90749246D01*
X127431603Y-90888166D01*
X126860000Y-91270098D01*
X126288397Y-90888166D01*
X125590000Y-90749246D01*
X124891603Y-90888166D01*
X124320000Y-91270098D01*
X123748397Y-90888166D01*
X123050000Y-90749246D01*
X122351603Y-90888166D01*
X121780000Y-91270098D01*
X121208397Y-90888166D01*
X120510000Y-90749246D01*
X119811603Y-90888166D01*
X119240000Y-91270098D01*
X118668397Y-90888166D01*
X117970000Y-90749246D01*
X117271603Y-90888166D01*
X116700000Y-91270098D01*
X116128397Y-90888166D01*
X115430000Y-90749246D01*
X114731603Y-90888166D01*
X114139530Y-91283776D01*
X113743920Y-91875849D01*
X113605000Y-92574246D01*
X110995000Y-92574246D01*
X110995000Y-92070000D01*
X110974344Y-91966156D01*
X110974344Y-91860279D01*
X110898224Y-91477596D01*
X110855456Y-91374344D01*
X110737710Y-91090079D01*
X110520937Y-90765655D01*
X110224345Y-90469063D01*
X110224342Y-90469062D01*
X109899921Y-90252290D01*
X109512404Y-90091776D01*
X109129721Y-90015656D01*
X109023844Y-90015656D01*
X108920000Y-89995000D01*
X106025876Y-89995000D01*
X106000123Y-89989877D01*
X105995000Y-89964124D01*
X105995000Y-86500000D01*
X124575000Y-86500000D01*
X124630258Y-86777798D01*
X124630246Y-86791019D01*
X124635339Y-86803346D01*
X124691084Y-87083592D01*
X124848442Y-87319096D01*
X124853492Y-87331317D01*
X124862916Y-87340758D01*
X125021662Y-87578338D01*
X125257165Y-87735696D01*
X125266508Y-87745055D01*
X125278829Y-87750171D01*
X125516408Y-87908916D01*
X125794204Y-87964173D01*
X125806416Y-87969244D01*
X125819755Y-87969256D01*
X126100000Y-88025000D01*
X126301093Y-87985000D01*
X157760000Y-87985000D01*
X158037798Y-87929742D01*
X158051019Y-87929754D01*
X158063346Y-87924661D01*
X158343592Y-87868916D01*
X158579096Y-87711558D01*
X158591317Y-87706508D01*
X158600758Y-87697084D01*
X158838338Y-87538338D01*
X158995696Y-87302835D01*
X159005055Y-87293492D01*
X159010171Y-87281171D01*
X159168916Y-87043592D01*
X159224173Y-86765796D01*
X159229244Y-86753584D01*
X159229256Y-86740245D01*
X159285000Y-86460000D01*
X159253137Y-86299813D01*
X159410000Y-86456676D01*
X159410000Y-88365000D01*
X159465258Y-88642798D01*
X159465246Y-88656019D01*
X159470339Y-88668346D01*
X159526084Y-88948592D01*
X159683442Y-89184096D01*
X159688492Y-89196317D01*
X159697916Y-89205758D01*
X159856662Y-89443338D01*
X160092165Y-89600696D01*
X160101508Y-89610055D01*
X160113829Y-89615171D01*
X160351408Y-89773916D01*
X160629204Y-89829173D01*
X160641416Y-89834244D01*
X160654755Y-89834256D01*
X160935000Y-89890000D01*
X161212798Y-89834742D01*
X161226019Y-89834754D01*
X161238346Y-89829661D01*
X161518592Y-89773916D01*
X161754096Y-89616558D01*
X161766317Y-89611508D01*
X161775758Y-89602084D01*
X162013338Y-89443338D01*
X162170696Y-89207835D01*
X162180055Y-89198492D01*
X162185171Y-89186171D01*
X162343916Y-88948592D01*
X162387452Y-88729721D01*
X162468333Y-89136337D01*
X162905261Y-89790244D01*
X163559168Y-90227172D01*
X164330505Y-90380600D01*
X166429495Y-90380600D01*
X167200832Y-90227172D01*
X167854739Y-89790244D01*
X168291667Y-89136337D01*
X168445095Y-88365000D01*
X168291667Y-87593663D01*
X167854739Y-86939756D01*
X167200832Y-86502828D01*
X166429495Y-86349400D01*
X164330505Y-86349400D01*
X163559168Y-86502828D01*
X162905261Y-86939756D01*
X162468333Y-87593663D01*
X162460000Y-87635556D01*
X162460000Y-85825000D01*
X162343916Y-85241408D01*
X162013338Y-84746662D01*
X160631676Y-83365000D01*
X162314905Y-83365000D01*
X162468333Y-84136337D01*
X162905261Y-84790244D01*
X163559168Y-85227172D01*
X164330505Y-85380600D01*
X166429495Y-85380600D01*
X167200832Y-85227172D01*
X167854739Y-84790244D01*
X168291667Y-84136337D01*
X168445095Y-83365000D01*
X168291667Y-82593663D01*
X167854739Y-81939756D01*
X167200832Y-81502828D01*
X166429495Y-81349400D01*
X164330505Y-81349400D01*
X163559168Y-81502828D01*
X162905261Y-81939756D01*
X162468333Y-82593663D01*
X162314905Y-83365000D01*
X160631676Y-83365000D01*
X160108338Y-82841662D01*
X159613592Y-82511084D01*
X159030000Y-82395000D01*
X138000547Y-82395000D01*
X137900000Y-82375000D01*
X137622202Y-82430258D01*
X137608981Y-82430246D01*
X137596654Y-82435339D01*
X137316408Y-82491084D01*
X137316176Y-82491239D01*
X137216408Y-82511084D01*
X136721662Y-82841662D01*
X136391084Y-83336408D01*
X136275000Y-83920000D01*
X136391084Y-84503592D01*
X136679341Y-84935000D01*
X126140005Y-84935000D01*
X126140000Y-84934999D01*
X125556408Y-85051084D01*
X125061662Y-85381662D01*
X125021662Y-85421662D01*
X124864304Y-85657165D01*
X124854945Y-85666508D01*
X124849829Y-85678829D01*
X124691084Y-85916408D01*
X124635827Y-86194204D01*
X124630756Y-86206416D01*
X124630744Y-86219755D01*
X124575000Y-86500000D01*
X105995000Y-86500000D01*
X105995000Y-82487250D01*
X106217165Y-82635696D01*
X106226508Y-82645055D01*
X106238829Y-82650171D01*
X106476408Y-82808916D01*
X106754204Y-82864173D01*
X106766416Y-82869244D01*
X106779755Y-82869256D01*
X107060000Y-82925000D01*
X107337798Y-82869742D01*
X107351019Y-82869754D01*
X107363346Y-82864661D01*
X107643592Y-82808916D01*
X107879096Y-82651558D01*
X107891317Y-82646508D01*
X107900758Y-82637084D01*
X108138338Y-82478338D01*
X108295696Y-82242835D01*
X108305055Y-82233492D01*
X108310171Y-82221171D01*
X108468916Y-81983592D01*
X108517919Y-81737237D01*
X109424999Y-80830157D01*
X109424999Y-82350001D01*
X109510635Y-82780520D01*
X109739879Y-83123608D01*
X109754504Y-83145496D01*
X110154514Y-83545506D01*
X110519491Y-83789376D01*
X110950009Y-83875011D01*
X115404977Y-83875011D01*
X115835496Y-83789375D01*
X116200472Y-83545506D01*
X116892081Y-82853897D01*
X119172691Y-82853897D01*
X119444172Y-83510932D01*
X119946424Y-84014061D01*
X120602984Y-84286689D01*
X121313897Y-84287309D01*
X121970932Y-84015828D01*
X122230011Y-83757200D01*
X122486424Y-84014061D01*
X123142984Y-84286689D01*
X123853897Y-84287309D01*
X124510932Y-84015828D01*
X125014061Y-83513576D01*
X125163413Y-83153897D01*
X128872691Y-83153897D01*
X129144172Y-83810932D01*
X129646424Y-84314061D01*
X130302984Y-84586689D01*
X131013897Y-84587309D01*
X131670932Y-84315828D01*
X131930011Y-84057200D01*
X132186424Y-84314061D01*
X132842984Y-84586689D01*
X133553897Y-84587309D01*
X134210932Y-84315828D01*
X134714061Y-83813576D01*
X134986689Y-83157016D01*
X134987309Y-82446103D01*
X134715828Y-81789068D01*
X134213576Y-81285939D01*
X133557016Y-81013311D01*
X132846103Y-81012691D01*
X132189068Y-81284172D01*
X131929989Y-81542800D01*
X131673576Y-81285939D01*
X131017016Y-81013311D01*
X130306103Y-81012691D01*
X129649068Y-81284172D01*
X129145939Y-81786424D01*
X128873311Y-82442984D01*
X128872691Y-83153897D01*
X125163413Y-83153897D01*
X125286689Y-82857016D01*
X125287309Y-82146103D01*
X125015828Y-81489068D01*
X124513576Y-80985939D01*
X123857016Y-80713311D01*
X123146103Y-80712691D01*
X122489068Y-80984172D01*
X122229989Y-81242800D01*
X121973576Y-80985939D01*
X121317016Y-80713311D01*
X120606103Y-80712691D01*
X119949068Y-80984172D01*
X119445939Y-81486424D01*
X119173311Y-82142984D01*
X119172691Y-82853897D01*
X116892081Y-82853897D01*
X117675496Y-82070482D01*
X117919365Y-81705506D01*
X118005001Y-81274987D01*
X118005001Y-78571554D01*
X163180026Y-78525000D01*
X163189019Y-78523316D01*
X163197380Y-78517970D01*
X163203002Y-78509793D01*
X163205000Y-78500072D01*
X163206636Y-77932331D01*
X163221600Y-78007560D01*
X163221600Y-78007560D01*
G37*
X163221600Y-78007560D02*
X163225333Y-78016572D01*
X163442106Y-78340996D01*
X163449004Y-78347894D01*
X163773428Y-78564667D01*
X163782440Y-78568400D01*
X164165123Y-78644520D01*
X164170000Y-78645000D01*
X168667536Y-78645000D01*
X168845000Y-78680300D01*
X168845000Y-120059700D01*
X168667536Y-120095000D01*
X163670000Y-120095000D01*
X163665123Y-120095480D01*
X163282440Y-120171600D01*
X163273428Y-120175333D01*
X162949004Y-120392106D01*
X162942106Y-120399004D01*
X162725333Y-120723428D01*
X162721600Y-120732440D01*
X162645480Y-121115123D01*
X162645000Y-121120000D01*
X162645000Y-126117536D01*
X162570330Y-126492929D01*
X162568946Y-126495000D01*
X112271054Y-126495000D01*
X112269670Y-126492929D01*
X112195000Y-126117536D01*
X112195000Y-121986505D01*
X113072400Y-121986505D01*
X113072400Y-124085495D01*
X113225828Y-124856832D01*
X113662756Y-125510739D01*
X114316663Y-125947667D01*
X115088000Y-126101095D01*
X115859337Y-125947667D01*
X116513244Y-125510739D01*
X116950172Y-124856832D01*
X117103600Y-124085495D01*
X117103600Y-121986505D01*
X124502400Y-121986505D01*
X124502400Y-124085495D01*
X124655828Y-124856832D01*
X125092756Y-125510739D01*
X125746663Y-125947667D01*
X126518000Y-126101095D01*
X127289337Y-125947667D01*
X127943244Y-125510739D01*
X128380172Y-124856832D01*
X128533600Y-124085495D01*
X128533600Y-121986505D01*
X128380172Y-121215168D01*
X127943244Y-120561261D01*
X127289337Y-120124333D01*
X126518000Y-119970905D01*
X125746663Y-120124333D01*
X125092756Y-120561261D01*
X124655828Y-121215168D01*
X124502400Y-121986505D01*
X117103600Y-121986505D01*
X116950172Y-121215168D01*
X116513244Y-120561261D01*
X115859337Y-120124333D01*
X115088000Y-119970905D01*
X114316663Y-120124333D01*
X113662756Y-120561261D01*
X113225828Y-121215168D01*
X113072400Y-121986505D01*
X112195000Y-121986505D01*
X112195000Y-121120000D01*
X112194520Y-121115123D01*
X112118400Y-120732440D01*
X112114667Y-120723428D01*
X111897894Y-120399004D01*
X111890996Y-120392106D01*
X111566572Y-120175333D01*
X111557560Y-120171600D01*
X111174877Y-120095480D01*
X111170000Y-120095000D01*
X106672464Y-120095000D01*
X106297071Y-120020330D01*
X105995000Y-119818493D01*
X105995000Y-114151230D01*
X106754820Y-114151230D01*
X106754820Y-117750410D01*
X106826292Y-118130252D01*
X107050779Y-118479114D01*
X107393305Y-118713152D01*
X107799900Y-118795490D01*
X109400100Y-118795490D01*
X109779942Y-118724018D01*
X110128804Y-118499531D01*
X110362842Y-118157005D01*
X110445180Y-117750410D01*
X110445180Y-117090574D01*
X110801661Y-116852381D01*
X114939042Y-112715000D01*
X115191734Y-112715000D01*
X114874362Y-113189981D01*
X114719000Y-113971038D01*
X114719000Y-114568962D01*
X114874362Y-115350019D01*
X115316795Y-116012167D01*
X115978943Y-116454600D01*
X116760000Y-116609962D01*
X117541057Y-116454600D01*
X118030000Y-116127899D01*
X118518943Y-116454600D01*
X119300000Y-116609962D01*
X120081057Y-116454600D01*
X120570000Y-116127899D01*
X121058943Y-116454600D01*
X121840000Y-116609962D01*
X122621057Y-116454600D01*
X123283205Y-116012167D01*
X123725638Y-115350019D01*
X123881000Y-114568962D01*
X123881000Y-114146000D01*
X126263000Y-114146000D01*
X126263000Y-117702000D01*
X126379084Y-118285592D01*
X126709662Y-118780338D01*
X127471662Y-119542338D01*
X127966408Y-119872916D01*
X128550000Y-119989000D01*
X135190029Y-119989000D01*
X135146510Y-120203900D01*
X135146510Y-121804100D01*
X135217982Y-122183942D01*
X135442469Y-122532804D01*
X135784995Y-122766842D01*
X136191590Y-122849180D01*
X137890504Y-122849180D01*
X139917662Y-124876338D01*
X140412408Y-125206916D01*
X140996000Y-125323000D01*
X143790000Y-125323000D01*
X144067798Y-125267742D01*
X144081019Y-125267754D01*
X144093346Y-125262661D01*
X144373592Y-125206916D01*
X144609096Y-125049558D01*
X144621317Y-125044508D01*
X144630758Y-125035084D01*
X144868338Y-124876338D01*
X145025696Y-124640835D01*
X145035055Y-124631492D01*
X145040171Y-124619171D01*
X145198916Y-124381592D01*
X145254173Y-124103796D01*
X145259244Y-124091584D01*
X145259256Y-124078245D01*
X145315000Y-123798000D01*
X145259742Y-123520202D01*
X145259754Y-123506981D01*
X145254661Y-123494654D01*
X145198916Y-123214408D01*
X145041558Y-122978904D01*
X145036508Y-122966683D01*
X145027084Y-122957242D01*
X144868338Y-122719662D01*
X144632835Y-122562304D01*
X144623492Y-122552945D01*
X144611171Y-122547829D01*
X144373592Y-122389084D01*
X144095796Y-122333827D01*
X144083584Y-122328756D01*
X144070245Y-122328744D01*
X143790000Y-122273000D01*
X141627676Y-122273000D01*
X141341181Y-121986505D01*
X147362400Y-121986505D01*
X147362400Y-124085495D01*
X147515828Y-124856832D01*
X147952756Y-125510739D01*
X148606663Y-125947667D01*
X149378000Y-126101095D01*
X150149337Y-125947667D01*
X150803244Y-125510739D01*
X151240172Y-124856832D01*
X151393600Y-124085495D01*
X151393600Y-121986505D01*
X151240172Y-121215168D01*
X150803244Y-120561261D01*
X150149337Y-120124333D01*
X149378000Y-119970905D01*
X148606663Y-120124333D01*
X147952756Y-120561261D01*
X147515828Y-121215168D01*
X147362400Y-121986505D01*
X141341181Y-121986505D01*
X140835850Y-121481174D01*
X140835850Y-120203900D01*
X140795414Y-119989000D01*
X143536000Y-119989000D01*
X144119592Y-119872916D01*
X144614338Y-119542338D01*
X147705518Y-116451158D01*
X148036096Y-115956412D01*
X148140408Y-115432000D01*
X154444920Y-115432000D01*
X154444920Y-117432000D01*
X154516392Y-117811842D01*
X154740879Y-118160704D01*
X155083405Y-118394742D01*
X155490000Y-118477080D01*
X157490000Y-118477080D01*
X157869842Y-118405608D01*
X158218704Y-118181121D01*
X158452742Y-117838595D01*
X158535080Y-117432000D01*
X158535080Y-116860000D01*
X162060905Y-116860000D01*
X162214333Y-117631337D01*
X162651261Y-118285244D01*
X163305168Y-118722172D01*
X164076505Y-118875600D01*
X166175495Y-118875600D01*
X166946832Y-118722172D01*
X167600739Y-118285244D01*
X168037667Y-117631337D01*
X168191095Y-116860000D01*
X168037667Y-116088663D01*
X167600739Y-115434756D01*
X166946832Y-114997828D01*
X166175495Y-114844400D01*
X164076505Y-114844400D01*
X163305168Y-114997828D01*
X162651261Y-115434756D01*
X162214333Y-116088663D01*
X162060905Y-116860000D01*
X158535080Y-116860000D01*
X158535080Y-115432000D01*
X158463608Y-115052158D01*
X158303934Y-114804018D01*
X158514648Y-114296565D01*
X158515351Y-113490970D01*
X158207712Y-112746428D01*
X157638568Y-112176290D01*
X156894565Y-111867352D01*
X156088970Y-111866649D01*
X155344428Y-112174288D01*
X154774290Y-112743432D01*
X154465352Y-113487435D01*
X154464649Y-114293030D01*
X154676818Y-114806517D01*
X154527258Y-115025405D01*
X154444920Y-115432000D01*
X148140408Y-115432000D01*
X148152180Y-115372820D01*
X148152180Y-114975180D01*
X148426770Y-114975180D01*
X148806612Y-114903708D01*
X149155474Y-114679221D01*
X149389512Y-114336695D01*
X149471850Y-113930100D01*
X149471850Y-112329900D01*
X149400378Y-111950058D01*
X149342428Y-111860000D01*
X162060905Y-111860000D01*
X162214333Y-112631337D01*
X162651261Y-113285244D01*
X163305168Y-113722172D01*
X164076505Y-113875600D01*
X166175495Y-113875600D01*
X166946832Y-113722172D01*
X167600739Y-113285244D01*
X168037667Y-112631337D01*
X168191095Y-111860000D01*
X168037667Y-111088663D01*
X167600739Y-110434756D01*
X166946832Y-109997828D01*
X166175495Y-109844400D01*
X164076505Y-109844400D01*
X163305168Y-109997828D01*
X162651261Y-110434756D01*
X162214333Y-111088663D01*
X162060905Y-111860000D01*
X149342428Y-111860000D01*
X149175891Y-111601196D01*
X148833365Y-111367158D01*
X148426770Y-111284820D01*
X144827590Y-111284820D01*
X144447748Y-111356292D01*
X144098886Y-111580779D01*
X143864848Y-111923305D01*
X143782510Y-112329900D01*
X143782510Y-113930100D01*
X143853982Y-114309942D01*
X144078469Y-114658804D01*
X144420995Y-114892842D01*
X144827590Y-114975180D01*
X144868144Y-114975180D01*
X142904324Y-116939000D01*
X129313000Y-116939000D01*
X129313000Y-114146000D01*
X129260296Y-113881038D01*
X130419000Y-113881038D01*
X130419000Y-114478962D01*
X130574362Y-115260019D01*
X131016795Y-115922167D01*
X131678943Y-116364600D01*
X132460000Y-116519962D01*
X133241057Y-116364600D01*
X133730000Y-116037899D01*
X134218943Y-116364600D01*
X135000000Y-116519962D01*
X135781057Y-116364600D01*
X136270000Y-116037899D01*
X136758943Y-116364600D01*
X137540000Y-116519962D01*
X138321057Y-116364600D01*
X138983205Y-115922167D01*
X139425638Y-115260019D01*
X139581000Y-114478962D01*
X139581000Y-113881038D01*
X139425638Y-113099981D01*
X138983205Y-112437833D01*
X138321057Y-111995400D01*
X137540000Y-111840038D01*
X136758943Y-111995400D01*
X136270000Y-112322101D01*
X135781057Y-111995400D01*
X135000000Y-111840038D01*
X134218943Y-111995400D01*
X133730000Y-112322101D01*
X133241057Y-111995400D01*
X132460000Y-111840038D01*
X131678943Y-111995400D01*
X131016795Y-112437833D01*
X130574362Y-113099981D01*
X130419000Y-113881038D01*
X129260296Y-113881038D01*
X129257742Y-113868202D01*
X129257754Y-113854981D01*
X129252661Y-113842654D01*
X129196916Y-113562408D01*
X129039558Y-113326904D01*
X129034508Y-113314683D01*
X129025084Y-113305242D01*
X128866338Y-113067662D01*
X128630835Y-112910304D01*
X128621492Y-112900945D01*
X128609171Y-112895829D01*
X128371592Y-112737084D01*
X128093796Y-112681827D01*
X128081584Y-112676756D01*
X128068245Y-112676744D01*
X127788000Y-112621000D01*
X127510202Y-112676258D01*
X127496981Y-112676246D01*
X127484654Y-112681339D01*
X127204408Y-112737084D01*
X126968904Y-112894442D01*
X126956683Y-112899492D01*
X126947242Y-112908916D01*
X126709662Y-113067662D01*
X126552304Y-113303165D01*
X126542945Y-113312508D01*
X126537829Y-113324829D01*
X126379084Y-113562408D01*
X126323827Y-113840204D01*
X126318756Y-113852416D01*
X126318744Y-113865755D01*
X126263000Y-114146000D01*
X123881000Y-114146000D01*
X123881000Y-113971038D01*
X123725638Y-113189981D01*
X123283205Y-112527833D01*
X122621057Y-112085400D01*
X121840000Y-111930038D01*
X121058943Y-112085400D01*
X120570000Y-112412101D01*
X120081057Y-112085400D01*
X119300000Y-111930038D01*
X118518943Y-112085400D01*
X118030000Y-112412101D01*
X117919857Y-112338506D01*
X118025055Y-112233492D01*
X118249244Y-111693584D01*
X118249754Y-111108981D01*
X118026508Y-110568683D01*
X117613492Y-110154945D01*
X117073584Y-109930756D01*
X116488981Y-109930246D01*
X115948683Y-110153492D01*
X115937155Y-110165000D01*
X114410920Y-110165000D01*
X113922999Y-110262054D01*
X113509359Y-110538439D01*
X110335612Y-113712186D01*
X110149221Y-113422526D01*
X109806695Y-113188488D01*
X109400100Y-113106150D01*
X107799900Y-113106150D01*
X107420058Y-113177622D01*
X107071196Y-113402109D01*
X106837158Y-113744635D01*
X106754820Y-114151230D01*
X105995000Y-114151230D01*
X105995000Y-109175876D01*
X106000123Y-109150123D01*
X106025876Y-109145000D01*
X108920000Y-109145000D01*
X109023844Y-109124344D01*
X109129721Y-109124344D01*
X109512404Y-109048224D01*
X109899921Y-108887710D01*
X110224342Y-108670938D01*
X110224345Y-108670937D01*
X110520937Y-108374345D01*
X110737710Y-108049921D01*
X110835329Y-107814246D01*
X113605000Y-107814246D01*
X113605000Y-107885754D01*
X113743920Y-108584151D01*
X114139530Y-109176224D01*
X114731603Y-109571834D01*
X115430000Y-109710754D01*
X116128397Y-109571834D01*
X116700000Y-109189902D01*
X117271603Y-109571834D01*
X117970000Y-109710754D01*
X118668397Y-109571834D01*
X119240000Y-109189902D01*
X119811603Y-109571834D01*
X120510000Y-109710754D01*
X121208397Y-109571834D01*
X121780000Y-109189902D01*
X122351603Y-109571834D01*
X123050000Y-109710754D01*
X123748397Y-109571834D01*
X124320000Y-109189902D01*
X124891603Y-109571834D01*
X125590000Y-109710754D01*
X126288397Y-109571834D01*
X126860000Y-109189902D01*
X127431603Y-109571834D01*
X128130000Y-109710754D01*
X128828397Y-109571834D01*
X129400000Y-109189902D01*
X129971603Y-109571834D01*
X130670000Y-109710754D01*
X131368397Y-109571834D01*
X131940000Y-109189902D01*
X132511603Y-109571834D01*
X133210000Y-109710754D01*
X133908397Y-109571834D01*
X134480000Y-109189902D01*
X135051603Y-109571834D01*
X135750000Y-109710754D01*
X136448397Y-109571834D01*
X137020000Y-109189902D01*
X137591603Y-109571834D01*
X138290000Y-109710754D01*
X138988397Y-109571834D01*
X139560000Y-109189902D01*
X140131603Y-109571834D01*
X140830000Y-109710754D01*
X141528397Y-109571834D01*
X142120470Y-109176224D01*
X142516080Y-108584151D01*
X142655000Y-107885754D01*
X142655000Y-107814246D01*
X144085000Y-107814246D01*
X144085000Y-107885754D01*
X144223920Y-108584151D01*
X144619530Y-109176224D01*
X145211603Y-109571834D01*
X145910000Y-109710754D01*
X146608397Y-109571834D01*
X147180000Y-109189902D01*
X147751603Y-109571834D01*
X148450000Y-109710754D01*
X149148397Y-109571834D01*
X149720000Y-109189902D01*
X150291603Y-109571834D01*
X150990000Y-109710754D01*
X151688397Y-109571834D01*
X152260000Y-109189902D01*
X152831603Y-109571834D01*
X153530000Y-109710754D01*
X154228397Y-109571834D01*
X154800000Y-109189902D01*
X155371603Y-109571834D01*
X156070000Y-109710754D01*
X156768397Y-109571834D01*
X157340000Y-109189902D01*
X157911603Y-109571834D01*
X158610000Y-109710754D01*
X159308397Y-109571834D01*
X159880000Y-109189902D01*
X160451603Y-109571834D01*
X161150000Y-109710754D01*
X161848397Y-109571834D01*
X162420000Y-109189902D01*
X162991603Y-109571834D01*
X163690000Y-109710754D01*
X164388397Y-109571834D01*
X164980470Y-109176224D01*
X165376080Y-108584151D01*
X165515000Y-107885754D01*
X165515000Y-107814246D01*
X165376080Y-107115849D01*
X164980470Y-106523776D01*
X164388397Y-106128166D01*
X163690000Y-105989246D01*
X162991603Y-106128166D01*
X162420000Y-106510098D01*
X161848397Y-106128166D01*
X161150000Y-105989246D01*
X160451603Y-106128166D01*
X159880000Y-106510098D01*
X159308397Y-106128166D01*
X158610000Y-105989246D01*
X157911603Y-106128166D01*
X157340000Y-106510098D01*
X156768397Y-106128166D01*
X156070000Y-105989246D01*
X155371603Y-106128166D01*
X154800000Y-106510098D01*
X154228397Y-106128166D01*
X153530000Y-105989246D01*
X152831603Y-106128166D01*
X152260000Y-106510098D01*
X151688397Y-106128166D01*
X150990000Y-105989246D01*
X150291603Y-106128166D01*
X149720000Y-106510098D01*
X149148397Y-106128166D01*
X148450000Y-105989246D01*
X147751603Y-106128166D01*
X147180000Y-106510098D01*
X146608397Y-106128166D01*
X145910000Y-105989246D01*
X145211603Y-106128166D01*
X144619530Y-106523776D01*
X144223920Y-107115849D01*
X144085000Y-107814246D01*
X142655000Y-107814246D01*
X142516080Y-107115849D01*
X142120470Y-106523776D01*
X141528397Y-106128166D01*
X140830000Y-105989246D01*
X140131603Y-106128166D01*
X139560000Y-106510098D01*
X138988397Y-106128166D01*
X138290000Y-105989246D01*
X137591603Y-106128166D01*
X137020000Y-106510098D01*
X136448397Y-106128166D01*
X135750000Y-105989246D01*
X135051603Y-106128166D01*
X134480000Y-106510098D01*
X133908397Y-106128166D01*
X133210000Y-105989246D01*
X132511603Y-106128166D01*
X131940000Y-106510098D01*
X131368397Y-106128166D01*
X130670000Y-105989246D01*
X129971603Y-106128166D01*
X129400000Y-106510098D01*
X128828397Y-106128166D01*
X128130000Y-105989246D01*
X127431603Y-106128166D01*
X126860000Y-106510098D01*
X126288397Y-106128166D01*
X125590000Y-105989246D01*
X124891603Y-106128166D01*
X124320000Y-106510098D01*
X123748397Y-106128166D01*
X123050000Y-105989246D01*
X122351603Y-106128166D01*
X121780000Y-106510098D01*
X121208397Y-106128166D01*
X120510000Y-105989246D01*
X119811603Y-106128166D01*
X119240000Y-106510098D01*
X118668397Y-106128166D01*
X117970000Y-105989246D01*
X117271603Y-106128166D01*
X116700000Y-106510098D01*
X116128397Y-106128166D01*
X115430000Y-105989246D01*
X114731603Y-106128166D01*
X114139530Y-106523776D01*
X113743920Y-107115849D01*
X113605000Y-107814246D01*
X110835329Y-107814246D01*
X110898224Y-107662404D01*
X110974344Y-107279721D01*
X110974344Y-107173844D01*
X110995000Y-107070000D01*
X110995000Y-92574246D01*
X113605000Y-92574246D01*
X113605000Y-92645754D01*
X113743920Y-93344151D01*
X114139530Y-93936224D01*
X114731603Y-94331834D01*
X115430000Y-94470754D01*
X116128397Y-94331834D01*
X116700000Y-93949902D01*
X117271603Y-94331834D01*
X117970000Y-94470754D01*
X118668397Y-94331834D01*
X119240000Y-93949902D01*
X119811603Y-94331834D01*
X120510000Y-94470754D01*
X121208397Y-94331834D01*
X121780000Y-93949902D01*
X122351603Y-94331834D01*
X123050000Y-94470754D01*
X123748397Y-94331834D01*
X124320000Y-93949902D01*
X124891603Y-94331834D01*
X125590000Y-94470754D01*
X126288397Y-94331834D01*
X126860000Y-93949902D01*
X127431603Y-94331834D01*
X128130000Y-94470754D01*
X128828397Y-94331834D01*
X129400000Y-93949902D01*
X129971603Y-94331834D01*
X130670000Y-94470754D01*
X131368397Y-94331834D01*
X131940000Y-93949902D01*
X132511603Y-94331834D01*
X133210000Y-94470754D01*
X133908397Y-94331834D01*
X134480000Y-93949902D01*
X135051603Y-94331834D01*
X135750000Y-94470754D01*
X136448397Y-94331834D01*
X137040470Y-93936224D01*
X137436080Y-93344151D01*
X137575000Y-92645754D01*
X137575000Y-92574246D01*
X139005000Y-92574246D01*
X139005000Y-92645754D01*
X139143920Y-93344151D01*
X139539530Y-93936224D01*
X140131603Y-94331834D01*
X140830000Y-94470754D01*
X141528397Y-94331834D01*
X142100000Y-93949902D01*
X142671603Y-94331834D01*
X143370000Y-94470754D01*
X144068397Y-94331834D01*
X144640000Y-93949902D01*
X145211603Y-94331834D01*
X145910000Y-94470754D01*
X146608397Y-94331834D01*
X147180000Y-93949902D01*
X147751603Y-94331834D01*
X148450000Y-94470754D01*
X149148397Y-94331834D01*
X149720000Y-93949902D01*
X150291603Y-94331834D01*
X150990000Y-94470754D01*
X151688397Y-94331834D01*
X152260000Y-93949902D01*
X152831603Y-94331834D01*
X153530000Y-94470754D01*
X154228397Y-94331834D01*
X154800000Y-93949902D01*
X155371603Y-94331834D01*
X156070000Y-94470754D01*
X156768397Y-94331834D01*
X157340000Y-93949902D01*
X157911603Y-94331834D01*
X158610000Y-94470754D01*
X159308397Y-94331834D01*
X159880000Y-93949902D01*
X160451603Y-94331834D01*
X161150000Y-94470754D01*
X161848397Y-94331834D01*
X162420000Y-93949902D01*
X162991603Y-94331834D01*
X163690000Y-94470754D01*
X164388397Y-94331834D01*
X164980470Y-93936224D01*
X165376080Y-93344151D01*
X165515000Y-92645754D01*
X165515000Y-92574246D01*
X165376080Y-91875849D01*
X164980470Y-91283776D01*
X164388397Y-90888166D01*
X163690000Y-90749246D01*
X162991603Y-90888166D01*
X162420000Y-91270098D01*
X161848397Y-90888166D01*
X161150000Y-90749246D01*
X160451603Y-90888166D01*
X159880000Y-91270098D01*
X159308397Y-90888166D01*
X158610000Y-90749246D01*
X157911603Y-90888166D01*
X157340000Y-91270098D01*
X156768397Y-90888166D01*
X156070000Y-90749246D01*
X155371603Y-90888166D01*
X154800000Y-91270098D01*
X154228397Y-90888166D01*
X153530000Y-90749246D01*
X152831603Y-90888166D01*
X152260000Y-91270098D01*
X151688397Y-90888166D01*
X150990000Y-90749246D01*
X150291603Y-90888166D01*
X149720000Y-91270098D01*
X149148397Y-90888166D01*
X148450000Y-90749246D01*
X147751603Y-90888166D01*
X147180000Y-91270098D01*
X146608397Y-90888166D01*
X145910000Y-90749246D01*
X145211603Y-90888166D01*
X144640000Y-91270098D01*
X144068397Y-90888166D01*
X143370000Y-90749246D01*
X142671603Y-90888166D01*
X142100000Y-91270098D01*
X141528397Y-90888166D01*
X140830000Y-90749246D01*
X140131603Y-90888166D01*
X139539530Y-91283776D01*
X139143920Y-91875849D01*
X139005000Y-92574246D01*
X137575000Y-92574246D01*
X137436080Y-91875849D01*
X137040470Y-91283776D01*
X136448397Y-90888166D01*
X135750000Y-90749246D01*
X135051603Y-90888166D01*
X134480000Y-91270098D01*
X133908397Y-90888166D01*
X133210000Y-90749246D01*
X132511603Y-90888166D01*
X131940000Y-91270098D01*
X131368397Y-90888166D01*
X130670000Y-90749246D01*
X129971603Y-90888166D01*
X129400000Y-91270098D01*
X128828397Y-90888166D01*
X128130000Y-90749246D01*
X127431603Y-90888166D01*
X126860000Y-91270098D01*
X126288397Y-90888166D01*
X125590000Y-90749246D01*
X124891603Y-90888166D01*
X124320000Y-91270098D01*
X123748397Y-90888166D01*
X123050000Y-90749246D01*
X122351603Y-90888166D01*
X121780000Y-91270098D01*
X121208397Y-90888166D01*
X120510000Y-90749246D01*
X119811603Y-90888166D01*
X119240000Y-91270098D01*
X118668397Y-90888166D01*
X117970000Y-90749246D01*
X117271603Y-90888166D01*
X116700000Y-91270098D01*
X116128397Y-90888166D01*
X115430000Y-90749246D01*
X114731603Y-90888166D01*
X114139530Y-91283776D01*
X113743920Y-91875849D01*
X113605000Y-92574246D01*
X110995000Y-92574246D01*
X110995000Y-92070000D01*
X110974344Y-91966156D01*
X110974344Y-91860279D01*
X110898224Y-91477596D01*
X110855456Y-91374344D01*
X110737710Y-91090079D01*
X110520937Y-90765655D01*
X110224345Y-90469063D01*
X110224342Y-90469062D01*
X109899921Y-90252290D01*
X109512404Y-90091776D01*
X109129721Y-90015656D01*
X109023844Y-90015656D01*
X108920000Y-89995000D01*
X106025876Y-89995000D01*
X106000123Y-89989877D01*
X105995000Y-89964124D01*
X105995000Y-86500000D01*
X124575000Y-86500000D01*
X124630258Y-86777798D01*
X124630246Y-86791019D01*
X124635339Y-86803346D01*
X124691084Y-87083592D01*
X124848442Y-87319096D01*
X124853492Y-87331317D01*
X124862916Y-87340758D01*
X125021662Y-87578338D01*
X125257165Y-87735696D01*
X125266508Y-87745055D01*
X125278829Y-87750171D01*
X125516408Y-87908916D01*
X125794204Y-87964173D01*
X125806416Y-87969244D01*
X125819755Y-87969256D01*
X126100000Y-88025000D01*
X126301093Y-87985000D01*
X157760000Y-87985000D01*
X158037798Y-87929742D01*
X158051019Y-87929754D01*
X158063346Y-87924661D01*
X158343592Y-87868916D01*
X158579096Y-87711558D01*
X158591317Y-87706508D01*
X158600758Y-87697084D01*
X158838338Y-87538338D01*
X158995696Y-87302835D01*
X159005055Y-87293492D01*
X159010171Y-87281171D01*
X159168916Y-87043592D01*
X159224173Y-86765796D01*
X159229244Y-86753584D01*
X159229256Y-86740245D01*
X159285000Y-86460000D01*
X159253137Y-86299813D01*
X159410000Y-86456676D01*
X159410000Y-88365000D01*
X159465258Y-88642798D01*
X159465246Y-88656019D01*
X159470339Y-88668346D01*
X159526084Y-88948592D01*
X159683442Y-89184096D01*
X159688492Y-89196317D01*
X159697916Y-89205758D01*
X159856662Y-89443338D01*
X160092165Y-89600696D01*
X160101508Y-89610055D01*
X160113829Y-89615171D01*
X160351408Y-89773916D01*
X160629204Y-89829173D01*
X160641416Y-89834244D01*
X160654755Y-89834256D01*
X160935000Y-89890000D01*
X161212798Y-89834742D01*
X161226019Y-89834754D01*
X161238346Y-89829661D01*
X161518592Y-89773916D01*
X161754096Y-89616558D01*
X161766317Y-89611508D01*
X161775758Y-89602084D01*
X162013338Y-89443338D01*
X162170696Y-89207835D01*
X162180055Y-89198492D01*
X162185171Y-89186171D01*
X162343916Y-88948592D01*
X162387452Y-88729721D01*
X162468333Y-89136337D01*
X162905261Y-89790244D01*
X163559168Y-90227172D01*
X164330505Y-90380600D01*
X166429495Y-90380600D01*
X167200832Y-90227172D01*
X167854739Y-89790244D01*
X168291667Y-89136337D01*
X168445095Y-88365000D01*
X168291667Y-87593663D01*
X167854739Y-86939756D01*
X167200832Y-86502828D01*
X166429495Y-86349400D01*
X164330505Y-86349400D01*
X163559168Y-86502828D01*
X162905261Y-86939756D01*
X162468333Y-87593663D01*
X162460000Y-87635556D01*
X162460000Y-85825000D01*
X162343916Y-85241408D01*
X162013338Y-84746662D01*
X160631676Y-83365000D01*
X162314905Y-83365000D01*
X162468333Y-84136337D01*
X162905261Y-84790244D01*
X163559168Y-85227172D01*
X164330505Y-85380600D01*
X166429495Y-85380600D01*
X167200832Y-85227172D01*
X167854739Y-84790244D01*
X168291667Y-84136337D01*
X168445095Y-83365000D01*
X168291667Y-82593663D01*
X167854739Y-81939756D01*
X167200832Y-81502828D01*
X166429495Y-81349400D01*
X164330505Y-81349400D01*
X163559168Y-81502828D01*
X162905261Y-81939756D01*
X162468333Y-82593663D01*
X162314905Y-83365000D01*
X160631676Y-83365000D01*
X160108338Y-82841662D01*
X159613592Y-82511084D01*
X159030000Y-82395000D01*
X138000547Y-82395000D01*
X137900000Y-82375000D01*
X137622202Y-82430258D01*
X137608981Y-82430246D01*
X137596654Y-82435339D01*
X137316408Y-82491084D01*
X137316176Y-82491239D01*
X137216408Y-82511084D01*
X136721662Y-82841662D01*
X136391084Y-83336408D01*
X136275000Y-83920000D01*
X136391084Y-84503592D01*
X136679341Y-84935000D01*
X126140005Y-84935000D01*
X126140000Y-84934999D01*
X125556408Y-85051084D01*
X125061662Y-85381662D01*
X125021662Y-85421662D01*
X124864304Y-85657165D01*
X124854945Y-85666508D01*
X124849829Y-85678829D01*
X124691084Y-85916408D01*
X124635827Y-86194204D01*
X124630756Y-86206416D01*
X124630744Y-86219755D01*
X124575000Y-86500000D01*
X105995000Y-86500000D01*
X105995000Y-82487250D01*
X106217165Y-82635696D01*
X106226508Y-82645055D01*
X106238829Y-82650171D01*
X106476408Y-82808916D01*
X106754204Y-82864173D01*
X106766416Y-82869244D01*
X106779755Y-82869256D01*
X107060000Y-82925000D01*
X107337798Y-82869742D01*
X107351019Y-82869754D01*
X107363346Y-82864661D01*
X107643592Y-82808916D01*
X107879096Y-82651558D01*
X107891317Y-82646508D01*
X107900758Y-82637084D01*
X108138338Y-82478338D01*
X108295696Y-82242835D01*
X108305055Y-82233492D01*
X108310171Y-82221171D01*
X108468916Y-81983592D01*
X108517919Y-81737237D01*
X109424999Y-80830157D01*
X109424999Y-82350001D01*
X109510635Y-82780520D01*
X109739879Y-83123608D01*
X109754504Y-83145496D01*
X110154514Y-83545506D01*
X110519491Y-83789376D01*
X110950009Y-83875011D01*
X115404977Y-83875011D01*
X115835496Y-83789375D01*
X116200472Y-83545506D01*
X116892081Y-82853897D01*
X119172691Y-82853897D01*
X119444172Y-83510932D01*
X119946424Y-84014061D01*
X120602984Y-84286689D01*
X121313897Y-84287309D01*
X121970932Y-84015828D01*
X122230011Y-83757200D01*
X122486424Y-84014061D01*
X123142984Y-84286689D01*
X123853897Y-84287309D01*
X124510932Y-84015828D01*
X125014061Y-83513576D01*
X125163413Y-83153897D01*
X128872691Y-83153897D01*
X129144172Y-83810932D01*
X129646424Y-84314061D01*
X130302984Y-84586689D01*
X131013897Y-84587309D01*
X131670932Y-84315828D01*
X131930011Y-84057200D01*
X132186424Y-84314061D01*
X132842984Y-84586689D01*
X133553897Y-84587309D01*
X134210932Y-84315828D01*
X134714061Y-83813576D01*
X134986689Y-83157016D01*
X134987309Y-82446103D01*
X134715828Y-81789068D01*
X134213576Y-81285939D01*
X133557016Y-81013311D01*
X132846103Y-81012691D01*
X132189068Y-81284172D01*
X131929989Y-81542800D01*
X131673576Y-81285939D01*
X131017016Y-81013311D01*
X130306103Y-81012691D01*
X129649068Y-81284172D01*
X129145939Y-81786424D01*
X128873311Y-82442984D01*
X128872691Y-83153897D01*
X125163413Y-83153897D01*
X125286689Y-82857016D01*
X125287309Y-82146103D01*
X125015828Y-81489068D01*
X124513576Y-80985939D01*
X123857016Y-80713311D01*
X123146103Y-80712691D01*
X122489068Y-80984172D01*
X122229989Y-81242800D01*
X121973576Y-80985939D01*
X121317016Y-80713311D01*
X120606103Y-80712691D01*
X119949068Y-80984172D01*
X119445939Y-81486424D01*
X119173311Y-82142984D01*
X119172691Y-82853897D01*
X116892081Y-82853897D01*
X117675496Y-82070482D01*
X117919365Y-81705506D01*
X118005001Y-81274987D01*
X118005001Y-78571554D01*
X163180026Y-78525000D01*
X163189019Y-78523316D01*
X163197380Y-78517970D01*
X163203002Y-78509793D01*
X163205000Y-78500072D01*
X163206636Y-77932331D01*
X163221600Y-78007560D01*
M02*
