G04 #@! TF.FileFunction,Copper,L2,Bot,Signal*
%FSLAX46Y46*%
G04 Gerber Fmt 4.6, Leading zero omitted, Abs format (unit mm)*
G04 Created by KiCad (PCBNEW 4.0.2-stable) date Sat 04 Jun 2016 09:29:27 PM CEST*
%MOMM*%
G01*
G04 APERTURE LIST*
%ADD10C,0.100000*%
%ADD11R,1.500000X1.300000*%
%ADD12R,1.500000X1.250000*%
%ADD13R,2.000000X2.000000*%
%ADD14C,2.000000*%
%ADD15R,1.727200X1.727200*%
%ADD16O,1.727200X1.727200*%
%ADD17R,1.300000X1.500000*%
%ADD18O,2.032000X2.540000*%
%ADD19O,1.600000X1.600000*%
%ADD20C,1.524000*%
%ADD21O,1.981200X3.962400*%
%ADD22O,3.962400X1.981200*%
%ADD23C,0.889000*%
%ADD24C,1.000000*%
%ADD25C,0.200000*%
%ADD26C,0.400000*%
%ADD27C,0.500000*%
%ADD28C,0.050000*%
G04 APERTURE END LIST*
D10*
D11*
X156570000Y-110844000D03*
X153870000Y-110844000D03*
D12*
X135770000Y-89230000D03*
X138270000Y-89230000D03*
X140840000Y-104680000D03*
X143340000Y-104680000D03*
X134960000Y-120220000D03*
X137460000Y-120220000D03*
X134960000Y-118030000D03*
X137460000Y-118030000D03*
D13*
X156490000Y-116432000D03*
D14*
X156490000Y-113892000D03*
D15*
X113260000Y-76060000D03*
D16*
X113260000Y-73520000D03*
X115800000Y-76060000D03*
X115800000Y-73520000D03*
X118340000Y-76060000D03*
X118340000Y-73520000D03*
X120880000Y-76060000D03*
X120880000Y-73520000D03*
X123420000Y-76060000D03*
X123420000Y-73520000D03*
X125960000Y-76060000D03*
X125960000Y-73520000D03*
X128500000Y-76060000D03*
X128500000Y-73520000D03*
X131040000Y-76060000D03*
X131040000Y-73520000D03*
X133580000Y-76060000D03*
X133580000Y-73520000D03*
X136120000Y-76060000D03*
X136120000Y-73520000D03*
X138660000Y-76060000D03*
X138660000Y-73520000D03*
X141200000Y-76060000D03*
X141200000Y-73520000D03*
X143740000Y-76060000D03*
X143740000Y-73520000D03*
X146280000Y-76060000D03*
X146280000Y-73520000D03*
X148820000Y-76060000D03*
X148820000Y-73520000D03*
X151360000Y-76060000D03*
X151360000Y-73520000D03*
X153900000Y-76060000D03*
X153900000Y-73520000D03*
X156440000Y-76060000D03*
X156440000Y-73520000D03*
X158980000Y-76060000D03*
X158980000Y-73520000D03*
X161520000Y-76060000D03*
X161520000Y-73520000D03*
D11*
X122630000Y-111470000D03*
X125330000Y-111470000D03*
D17*
X125390000Y-114320000D03*
X125390000Y-117020000D03*
D11*
X158950000Y-116686000D03*
X161650000Y-116686000D03*
X124050000Y-88800000D03*
X121350000Y-88800000D03*
D17*
X117560000Y-85870000D03*
X117560000Y-88570000D03*
X141170000Y-113790000D03*
X141170000Y-116490000D03*
D11*
X135000000Y-111290000D03*
X137700000Y-111290000D03*
D18*
X119300000Y-114270000D03*
X116760000Y-114270000D03*
X121840000Y-114270000D03*
D19*
X115430000Y-107850000D03*
X117970000Y-107850000D03*
X120510000Y-107850000D03*
X123050000Y-107850000D03*
X125590000Y-107850000D03*
X128130000Y-107850000D03*
X130670000Y-107850000D03*
X133210000Y-107850000D03*
X135750000Y-107850000D03*
X138290000Y-107850000D03*
X140830000Y-107850000D03*
X143370000Y-107850000D03*
X145910000Y-107850000D03*
X148450000Y-107850000D03*
X150990000Y-107850000D03*
X153530000Y-107850000D03*
X156070000Y-107850000D03*
X158610000Y-107850000D03*
X161150000Y-107850000D03*
X163690000Y-107850000D03*
X163690000Y-92610000D03*
X161150000Y-92610000D03*
X158610000Y-92610000D03*
X156070000Y-92610000D03*
X153530000Y-92610000D03*
X150990000Y-92610000D03*
X148450000Y-92610000D03*
X145910000Y-92610000D03*
X143370000Y-92610000D03*
X140830000Y-92610000D03*
X138290000Y-92610000D03*
X135750000Y-92610000D03*
X133210000Y-92610000D03*
X130670000Y-92610000D03*
X128130000Y-92610000D03*
X125590000Y-92610000D03*
X123050000Y-92610000D03*
X120510000Y-92610000D03*
X117970000Y-92610000D03*
X115430000Y-92610000D03*
D18*
X135000000Y-114180000D03*
X132460000Y-114180000D03*
X137540000Y-114180000D03*
D20*
X130660000Y-82800000D03*
X128120000Y-82800000D03*
X133200000Y-82800000D03*
X120960000Y-82500000D03*
X118420000Y-82500000D03*
X123500000Y-82500000D03*
D21*
X149378000Y-123036000D03*
X154378000Y-123036000D03*
X126518000Y-123036000D03*
X131518000Y-123036000D03*
X115088000Y-123036000D03*
X120088000Y-123036000D03*
D22*
X165126000Y-111860000D03*
X165126000Y-116860000D03*
X165380000Y-88365000D03*
X165380000Y-83365000D03*
D23*
X115376902Y-81240914D03*
X108600000Y-110449180D03*
X111140000Y-73870000D03*
X116780000Y-111400000D03*
X143790000Y-123798000D03*
X127788000Y-114146000D03*
X107060000Y-81400000D03*
X160935000Y-88365000D03*
X137900000Y-83900000D03*
X126100000Y-86500000D03*
X157760000Y-86460000D03*
D24*
X120088000Y-123036000D02*
X120930000Y-123036000D01*
X120930000Y-123036000D02*
X124232000Y-126338000D01*
X124232000Y-126338000D02*
X128216000Y-126338000D01*
X128216000Y-126338000D02*
X131518000Y-123036000D01*
D25*
X124350000Y-75150000D02*
X123850000Y-75150000D01*
X123850000Y-75150000D02*
X123420000Y-75580000D01*
X123420000Y-75580000D02*
X123420000Y-76060000D01*
X123300000Y-74900000D02*
X124400000Y-74900000D01*
X123400000Y-75050000D02*
X123750000Y-75050000D01*
X124000000Y-75300000D02*
X123700000Y-75300000D01*
X123750000Y-75050000D02*
X124000000Y-75300000D01*
X123700000Y-75300000D02*
X123420000Y-75020000D01*
X123420000Y-75020000D02*
X123420000Y-75050000D01*
X123420000Y-76060000D02*
X123420000Y-75880000D01*
X123420000Y-75880000D02*
X124100000Y-75200000D01*
X123300000Y-74900000D02*
X124100000Y-74900000D01*
X124100000Y-74900000D02*
X124250000Y-75050000D01*
X123050000Y-75050000D02*
X123420000Y-75050000D01*
X123420000Y-75050000D02*
X123400000Y-75050000D01*
X123400000Y-75050000D02*
X124250000Y-75050000D01*
X124250000Y-75050000D02*
X124400000Y-74900000D01*
X124400000Y-74900000D02*
X124500000Y-74800000D01*
X122900000Y-75300000D02*
X122900000Y-75200000D01*
X122900000Y-75200000D02*
X123050000Y-75050000D01*
X123050000Y-75050000D02*
X123100000Y-75000000D01*
X123000000Y-75200000D02*
X122900000Y-75300000D01*
X123100000Y-75000000D02*
X123100000Y-74900000D01*
X122800000Y-75200000D02*
X122800000Y-75100000D01*
X122800000Y-75100000D02*
X123000000Y-74900000D01*
X122550000Y-75200000D02*
X122550000Y-75150000D01*
X122550000Y-75150000D02*
X122800000Y-74900000D01*
X122350000Y-74950000D02*
X122550000Y-74950000D01*
X122550000Y-74950000D02*
X122600000Y-74900000D01*
X123420000Y-74900000D02*
X123300000Y-74900000D01*
X123300000Y-74900000D02*
X123100000Y-74900000D01*
X123100000Y-74900000D02*
X123000000Y-74900000D01*
X123000000Y-74900000D02*
X122800000Y-74900000D01*
X122800000Y-74900000D02*
X122600000Y-74900000D01*
X122600000Y-74900000D02*
X122600000Y-74800000D01*
X122600000Y-75200000D02*
X122550000Y-75200000D01*
X122550000Y-75200000D02*
X122800000Y-75200000D01*
X122800000Y-75200000D02*
X123000000Y-75200000D01*
X123000000Y-75200000D02*
X123200000Y-75200000D01*
X123200000Y-75200000D02*
X123300000Y-75100000D01*
D24*
X143740000Y-76060000D02*
X143740000Y-80060000D01*
X143740000Y-80060000D02*
X143730000Y-80060000D01*
X123420000Y-76060000D02*
X123420000Y-80060000D01*
X123420000Y-80060000D02*
X123370000Y-80060000D01*
D25*
X123420000Y-76060000D02*
X123440000Y-76060000D01*
X123440000Y-76060000D02*
X124350000Y-75150000D01*
X124350000Y-75150000D02*
X124700000Y-74800000D01*
X123420000Y-76060000D02*
X123420000Y-76020000D01*
X123420000Y-76020000D02*
X122600000Y-75200000D01*
X122600000Y-75200000D02*
X122350000Y-74950000D01*
X122350000Y-74950000D02*
X122200000Y-74800000D01*
X123420000Y-76060000D02*
X123420000Y-74900000D01*
X123420000Y-74900000D02*
X123420000Y-74800000D01*
X123400000Y-74900000D02*
X123400000Y-74800000D01*
X123400000Y-74820000D02*
X123400000Y-74900000D01*
X123420000Y-74800000D02*
X123400000Y-74820000D01*
X128500000Y-73520000D02*
X128480000Y-73520000D01*
X128480000Y-73520000D02*
X127200000Y-74800000D01*
X127200000Y-74800000D02*
X124700000Y-74800000D01*
X124700000Y-74800000D02*
X124500000Y-74800000D01*
X124500000Y-74800000D02*
X123400000Y-74800000D01*
X123400000Y-74800000D02*
X122600000Y-74800000D01*
X122600000Y-74800000D02*
X122200000Y-74800000D01*
X122200000Y-74800000D02*
X119620000Y-74800000D01*
X119620000Y-74800000D02*
X118340000Y-73520000D01*
X136120000Y-73520000D02*
X136220000Y-73520000D01*
X136220000Y-73520000D02*
X137500000Y-74800000D01*
X137500000Y-74800000D02*
X144900000Y-74800000D01*
X153900000Y-73520000D02*
X153880000Y-73520000D01*
X153880000Y-73520000D02*
X152600000Y-74800000D01*
X152600000Y-74800000D02*
X147540000Y-74800000D01*
X143740000Y-76060000D02*
X143740000Y-75960000D01*
X143740000Y-75960000D02*
X144900000Y-74800000D01*
X147540000Y-74800000D02*
X148820000Y-73520000D01*
X144900000Y-74800000D02*
X147540000Y-74800000D01*
X115376902Y-81240914D02*
X115342000Y-86206000D01*
D24*
X158741314Y-80060000D02*
X143730000Y-80060000D01*
X161520000Y-77281314D02*
X158741314Y-80060000D01*
X161520000Y-76060000D02*
X161520000Y-77281314D01*
X143730000Y-80060000D02*
X130725000Y-80060000D01*
X130725000Y-80060000D02*
X123370000Y-80060000D01*
X123370000Y-80060000D02*
X118809430Y-80060000D01*
X118809430Y-80060000D02*
X118580000Y-80289430D01*
X123730000Y-80099430D02*
X123690570Y-80060000D01*
X123690570Y-80060000D02*
X123370000Y-80060000D01*
X138270000Y-89230000D02*
X138270000Y-87605000D01*
X138290000Y-92610000D02*
X138290000Y-89250000D01*
X138290000Y-89250000D02*
X138270000Y-89230000D01*
X138290000Y-92610000D02*
X138290000Y-99755000D01*
X138290000Y-99755000D02*
X143215000Y-104680000D01*
X143215000Y-104680000D02*
X143340000Y-104680000D01*
X143370000Y-107850000D02*
X143370000Y-104710000D01*
X143370000Y-104710000D02*
X143340000Y-104680000D01*
X143370000Y-111140000D02*
X143370000Y-108981370D01*
X143370000Y-115940000D02*
X143370000Y-111140000D01*
X141170000Y-116490000D02*
X142820000Y-116490000D01*
X142820000Y-116490000D02*
X143370000Y-115940000D01*
X143370000Y-108981370D02*
X143370000Y-107850000D01*
X137460000Y-118030000D02*
X140650000Y-118030000D01*
X140650000Y-118030000D02*
X141170000Y-117510000D01*
X141170000Y-117510000D02*
X141170000Y-116490000D01*
X137460000Y-120220000D02*
X137460000Y-118030000D01*
X113260000Y-73520000D02*
X115800000Y-73520000D01*
X111140000Y-73870000D02*
X112910000Y-73870000D01*
X112910000Y-73870000D02*
X113260000Y-73520000D01*
X134960000Y-120220000D02*
X134960000Y-122842000D01*
X154204000Y-118718000D02*
X156490000Y-116432000D01*
X144552000Y-118718000D02*
X154204000Y-118718000D01*
X139472000Y-123798000D02*
X144552000Y-118718000D01*
X135916000Y-123798000D02*
X139472000Y-123798000D01*
X134960000Y-122842000D02*
X135916000Y-123798000D01*
X156490000Y-116432000D02*
X158696000Y-116432000D01*
X158696000Y-116432000D02*
X158950000Y-116686000D01*
X159040000Y-116776000D02*
X158950000Y-116686000D01*
X158890000Y-116746000D02*
X158950000Y-116686000D01*
X135750000Y-92610000D02*
X135750000Y-89250000D01*
X135750000Y-89250000D02*
X135770000Y-89230000D01*
X140840000Y-104680000D02*
X139090000Y-104680000D01*
X139090000Y-104680000D02*
X135750000Y-101340000D01*
X135750000Y-101340000D02*
X135750000Y-93741370D01*
X135750000Y-93741370D02*
X135750000Y-92610000D01*
X140830000Y-107850000D02*
X140830000Y-104690000D01*
X140830000Y-104690000D02*
X140840000Y-104680000D01*
X136420000Y-109620000D02*
X139060000Y-109620000D01*
X139060000Y-109620000D02*
X140830000Y-107850000D01*
X135000000Y-111040000D02*
X136420000Y-109620000D01*
X135000000Y-111290000D02*
X135000000Y-111040000D01*
X135000000Y-114180000D02*
X135000000Y-111290000D01*
X134960000Y-120220000D02*
X134960000Y-118030000D01*
X134960000Y-118030000D02*
X134960000Y-114220000D01*
X134960000Y-114220000D02*
X135000000Y-114180000D01*
X115088000Y-123036000D02*
X115088000Y-123544000D01*
X115088000Y-123544000D02*
X119152000Y-119480000D01*
X122962000Y-119480000D02*
X126518000Y-123036000D01*
X119152000Y-119480000D02*
X122962000Y-119480000D01*
X116760000Y-114270000D02*
X116760000Y-116792000D01*
X115088000Y-118464000D02*
X115088000Y-123036000D01*
X116760000Y-116792000D02*
X115088000Y-118464000D01*
X116760000Y-114270000D02*
X116760000Y-111420000D01*
X116760000Y-111420000D02*
X116780000Y-111400000D01*
X148362000Y-123036000D02*
X149378000Y-123036000D01*
X147600000Y-123798000D02*
X148362000Y-123036000D01*
X143790000Y-123798000D02*
X147600000Y-123798000D01*
X132460000Y-114180000D02*
X127822000Y-114180000D01*
X127822000Y-114180000D02*
X127788000Y-114146000D01*
X111330000Y-86480000D02*
X107060000Y-82210000D01*
X107060000Y-82210000D02*
X107060000Y-81400000D01*
X111330000Y-108590000D02*
X111330000Y-86480000D01*
X112550000Y-109810000D02*
X111330000Y-108590000D01*
X123080000Y-109810000D02*
X112550000Y-109810000D01*
X131640000Y-109810000D02*
X132460000Y-110630000D01*
X132460000Y-110630000D02*
X132460000Y-114180000D01*
X123080000Y-109810000D02*
X131640000Y-109810000D01*
X122630000Y-110260000D02*
X123080000Y-109810000D01*
X122630000Y-111470000D02*
X122630000Y-110260000D01*
X119300000Y-114270000D02*
X119300000Y-113050000D01*
X119300000Y-113050000D02*
X120880000Y-111470000D01*
X120880000Y-111470000D02*
X122630000Y-111470000D01*
X156570000Y-110844000D02*
X156570000Y-113812000D01*
X156570000Y-113812000D02*
X156490000Y-113892000D01*
X117970000Y-92610000D02*
X117970000Y-92180000D01*
X117970000Y-92180000D02*
X121350000Y-88800000D01*
D25*
X121780000Y-88800000D02*
X121910000Y-88800000D01*
D24*
X137700000Y-111290000D02*
X138670000Y-111290000D01*
X138670000Y-111290000D02*
X141170000Y-113790000D01*
X137700000Y-111290000D02*
X137700000Y-114020000D01*
X137700000Y-114020000D02*
X137540000Y-114180000D01*
D25*
X120880000Y-73520000D02*
X120880000Y-73220000D01*
D26*
X120880000Y-73220000D02*
X122500000Y-71300000D01*
X122500000Y-71300000D02*
X162700000Y-71300000D01*
X162700000Y-71300000D02*
X163700000Y-72000000D01*
X163700000Y-72000000D02*
X163700000Y-78800000D01*
X163700000Y-78800000D02*
X156300000Y-86200000D01*
X156300000Y-86200000D02*
X156300000Y-90300000D01*
X156300000Y-90300000D02*
X158610000Y-92610000D01*
D25*
X123420000Y-73520000D02*
X123420000Y-73080000D01*
D26*
X123420000Y-73080000D02*
X124400000Y-72100000D01*
X155100000Y-91640000D02*
X156070000Y-92610000D01*
X155100000Y-86100000D02*
X155100000Y-91640000D01*
X163100000Y-78100000D02*
X155100000Y-86100000D01*
X163100000Y-72800000D02*
X163100000Y-78100000D01*
X162400000Y-72100000D02*
X163100000Y-72800000D01*
X124400000Y-72100000D02*
X162400000Y-72100000D01*
D24*
X161150000Y-107850000D02*
X161150000Y-110805000D01*
X162205000Y-111860000D02*
X165380000Y-111860000D01*
X161150000Y-110805000D02*
X162205000Y-111860000D01*
X161650000Y-116686000D02*
X164952000Y-116686000D01*
X164952000Y-116686000D02*
X165126000Y-116860000D01*
D27*
X161770000Y-116566000D02*
X161650000Y-116686000D01*
D24*
X160935000Y-88365000D02*
X165380000Y-88365000D01*
X133200000Y-82800000D02*
X136800000Y-82800000D01*
X136800000Y-82800000D02*
X137900000Y-83900000D01*
X157760000Y-86460000D02*
X162285000Y-86460000D01*
X123500000Y-83900000D02*
X126100000Y-86500000D01*
X123500000Y-82500000D02*
X123500000Y-83900000D01*
X162285000Y-86460000D02*
X165380000Y-83365000D01*
X124050000Y-88800000D02*
X127000000Y-88800000D01*
X130660000Y-85140000D02*
X130660000Y-82800000D01*
X127000000Y-88800000D02*
X130660000Y-85140000D01*
X117560000Y-85870000D02*
X117590000Y-85870000D01*
X117590000Y-85870000D02*
X120960000Y-82500000D01*
X125330000Y-111470000D02*
X125330000Y-114260000D01*
X125330000Y-114260000D02*
X125390000Y-114320000D01*
X121840000Y-114270000D02*
X125340000Y-114270000D01*
X125340000Y-114270000D02*
X125390000Y-114320000D01*
X117560000Y-88570000D02*
X117550000Y-88570000D01*
X117550000Y-88570000D02*
X115430000Y-90690000D01*
X115430000Y-90690000D02*
X115430000Y-92610000D01*
D25*
X115430000Y-92610000D02*
X115430000Y-90800000D01*
X115430000Y-90800000D02*
X117560000Y-88670000D01*
X117560000Y-88670000D02*
X117560000Y-88570000D01*
D28*
G36*
X164987909Y-76959232D02*
X165915569Y-77344431D01*
X166920024Y-77345307D01*
X167191120Y-77233293D01*
X168652676Y-78638025D01*
X168665123Y-78644520D01*
X168845000Y-78680300D01*
X168845000Y-120059700D01*
X168667536Y-120095000D01*
X163670000Y-120095000D01*
X163665123Y-120095480D01*
X163282440Y-120171600D01*
X163273428Y-120175333D01*
X162949004Y-120392106D01*
X162942106Y-120399004D01*
X162725333Y-120723428D01*
X162721600Y-120732440D01*
X162645480Y-121115123D01*
X162645000Y-121120000D01*
X162645000Y-126117536D01*
X162570330Y-126492929D01*
X162568946Y-126495000D01*
X112271054Y-126495000D01*
X112269670Y-126492929D01*
X112195000Y-126117536D01*
X112195000Y-121120000D01*
X112194520Y-121115123D01*
X112118400Y-120732440D01*
X112114667Y-120723428D01*
X111897894Y-120399004D01*
X111890996Y-120392106D01*
X111566572Y-120175333D01*
X111557560Y-120171600D01*
X111174877Y-120095480D01*
X111170000Y-120095000D01*
X106672464Y-120095000D01*
X106297071Y-120020330D01*
X105995000Y-119818493D01*
X105995000Y-109175876D01*
X106000123Y-109150123D01*
X106025876Y-109145000D01*
X108920000Y-109145000D01*
X109023844Y-109124344D01*
X109129721Y-109124344D01*
X109512404Y-109048224D01*
X109866936Y-108901373D01*
X109921084Y-109173592D01*
X110251662Y-109668338D01*
X111471662Y-110888338D01*
X111966408Y-111218916D01*
X112550000Y-111335001D01*
X112550005Y-111335000D01*
X115251908Y-111335000D01*
X115235000Y-111420000D01*
X115235000Y-112650248D01*
X114874362Y-113189981D01*
X114719000Y-113971038D01*
X114719000Y-114568962D01*
X114874362Y-115350019D01*
X115235000Y-115889752D01*
X115235000Y-116160324D01*
X114009662Y-117385662D01*
X113679084Y-117880408D01*
X113563000Y-118464000D01*
X113563000Y-120710556D01*
X113225828Y-121215168D01*
X113072400Y-121986505D01*
X113072400Y-124085495D01*
X113225828Y-124856832D01*
X113662756Y-125510739D01*
X114316663Y-125947667D01*
X115088000Y-126101095D01*
X115859337Y-125947667D01*
X116513244Y-125510739D01*
X116950172Y-124856832D01*
X117103600Y-124085495D01*
X117103600Y-123685076D01*
X119783676Y-121005000D01*
X122330324Y-121005000D01*
X124502400Y-123177076D01*
X124502400Y-124085495D01*
X124655828Y-124856832D01*
X125092756Y-125510739D01*
X125746663Y-125947667D01*
X126518000Y-126101095D01*
X127289337Y-125947667D01*
X127943244Y-125510739D01*
X128380172Y-124856832D01*
X128533600Y-124085495D01*
X128533600Y-121986505D01*
X128380172Y-121215168D01*
X127943244Y-120561261D01*
X127289337Y-120124333D01*
X126518000Y-119970905D01*
X125760297Y-120121621D01*
X124040338Y-118401662D01*
X123545592Y-118071084D01*
X122962000Y-117955000D01*
X119152000Y-117955000D01*
X118568408Y-118071084D01*
X118073662Y-118401662D01*
X116613000Y-119862324D01*
X116613000Y-119095676D01*
X117838338Y-117870338D01*
X118168916Y-117375592D01*
X118285000Y-116792000D01*
X118285000Y-116298284D01*
X118518943Y-116454600D01*
X119300000Y-116609962D01*
X120081057Y-116454600D01*
X120570000Y-116127899D01*
X121058943Y-116454600D01*
X121840000Y-116609962D01*
X122621057Y-116454600D01*
X123283205Y-116012167D01*
X123428311Y-115795000D01*
X123988496Y-115795000D01*
X123990879Y-115798704D01*
X124333405Y-116032742D01*
X124740000Y-116115080D01*
X126040000Y-116115080D01*
X126419842Y-116043608D01*
X126768704Y-115819121D01*
X127002742Y-115476595D01*
X127010795Y-115436830D01*
X127238408Y-115588916D01*
X127822000Y-115705000D01*
X130871689Y-115705000D01*
X131016795Y-115922167D01*
X131678943Y-116364600D01*
X132460000Y-116519962D01*
X133241057Y-116364600D01*
X133435000Y-116235011D01*
X133435000Y-116723635D01*
X133247258Y-116998405D01*
X133164920Y-117405000D01*
X133164920Y-118655000D01*
X133236392Y-119034842D01*
X133292551Y-119122116D01*
X133247258Y-119188405D01*
X133164920Y-119595000D01*
X133164920Y-120845000D01*
X133236392Y-121224842D01*
X133435000Y-121533487D01*
X133435000Y-122842000D01*
X133551084Y-123425592D01*
X133881662Y-123920338D01*
X134837662Y-124876338D01*
X135332408Y-125206916D01*
X135916000Y-125323000D01*
X139472000Y-125323000D01*
X140055592Y-125206916D01*
X140550338Y-124876338D01*
X145183676Y-120243000D01*
X148429066Y-120243000D01*
X147952756Y-120561261D01*
X147515828Y-121215168D01*
X147381086Y-121892566D01*
X147283662Y-121957662D01*
X146968324Y-122273000D01*
X143790000Y-122273000D01*
X143512202Y-122328258D01*
X143498981Y-122328246D01*
X143486654Y-122333339D01*
X143206408Y-122389084D01*
X142970904Y-122546442D01*
X142958683Y-122551492D01*
X142949242Y-122560916D01*
X142711662Y-122719662D01*
X142554304Y-122955165D01*
X142544945Y-122964508D01*
X142539829Y-122976829D01*
X142381084Y-123214408D01*
X142325827Y-123492204D01*
X142320756Y-123504416D01*
X142320744Y-123517755D01*
X142265000Y-123798000D01*
X142320258Y-124075798D01*
X142320246Y-124089019D01*
X142325339Y-124101346D01*
X142381084Y-124381592D01*
X142538442Y-124617096D01*
X142543492Y-124629317D01*
X142552916Y-124638758D01*
X142711662Y-124876338D01*
X142947165Y-125033696D01*
X142956508Y-125043055D01*
X142968829Y-125048171D01*
X143206408Y-125206916D01*
X143484204Y-125262173D01*
X143496416Y-125267244D01*
X143509755Y-125267256D01*
X143790000Y-125323000D01*
X147600000Y-125323000D01*
X147800645Y-125283089D01*
X147952756Y-125510739D01*
X148606663Y-125947667D01*
X149378000Y-126101095D01*
X150149337Y-125947667D01*
X150803244Y-125510739D01*
X151240172Y-124856832D01*
X151393600Y-124085495D01*
X151393600Y-121986505D01*
X151240172Y-121215168D01*
X150803244Y-120561261D01*
X150326934Y-120243000D01*
X154204000Y-120243000D01*
X154787592Y-120126916D01*
X155282338Y-119796338D01*
X156601596Y-118477080D01*
X157490000Y-118477080D01*
X157869842Y-118405608D01*
X157977866Y-118336096D01*
X158200000Y-118381080D01*
X159700000Y-118381080D01*
X160079842Y-118309608D01*
X160301014Y-118167287D01*
X160493405Y-118298742D01*
X160900000Y-118381080D01*
X162400000Y-118381080D01*
X162707965Y-118323133D01*
X163305168Y-118722172D01*
X164076505Y-118875600D01*
X166175495Y-118875600D01*
X166946832Y-118722172D01*
X167600739Y-118285244D01*
X168037667Y-117631337D01*
X168191095Y-116860000D01*
X168037667Y-116088663D01*
X167600739Y-115434756D01*
X166946832Y-114997828D01*
X166175495Y-114844400D01*
X164076505Y-114844400D01*
X163305168Y-114997828D01*
X163060965Y-115161000D01*
X162935010Y-115161000D01*
X162806595Y-115073258D01*
X162400000Y-114990920D01*
X160900000Y-114990920D01*
X160520158Y-115062392D01*
X160298986Y-115204713D01*
X160106595Y-115073258D01*
X159700000Y-114990920D01*
X159117893Y-114990920D01*
X158696000Y-114907000D01*
X158370201Y-114907000D01*
X158303934Y-114804018D01*
X158514648Y-114296565D01*
X158515351Y-113490970D01*
X158207712Y-112746428D01*
X158095000Y-112633519D01*
X158095000Y-112175365D01*
X158282742Y-111900595D01*
X158365080Y-111494000D01*
X158365080Y-110194000D01*
X158293608Y-109814158D01*
X158170861Y-109623404D01*
X158610000Y-109710754D01*
X159308397Y-109571834D01*
X159625000Y-109360287D01*
X159625000Y-110805000D01*
X159741084Y-111388592D01*
X160071662Y-111883338D01*
X161126662Y-112938338D01*
X161621408Y-113268916D01*
X162205000Y-113385000D01*
X162800556Y-113385000D01*
X163305168Y-113722172D01*
X164076505Y-113875600D01*
X166175495Y-113875600D01*
X166946832Y-113722172D01*
X167600739Y-113285244D01*
X168037667Y-112631337D01*
X168191095Y-111860000D01*
X168037667Y-111088663D01*
X167600739Y-110434756D01*
X166946832Y-109997828D01*
X166175495Y-109844400D01*
X164076505Y-109844400D01*
X163305168Y-109997828D01*
X162822208Y-110320532D01*
X162675000Y-110173324D01*
X162675000Y-109360287D01*
X162991603Y-109571834D01*
X163690000Y-109710754D01*
X164388397Y-109571834D01*
X164980470Y-109176224D01*
X165376080Y-108584151D01*
X165515000Y-107885754D01*
X165515000Y-107814246D01*
X165376080Y-107115849D01*
X164980470Y-106523776D01*
X164388397Y-106128166D01*
X163690000Y-105989246D01*
X162991603Y-106128166D01*
X162420000Y-106510098D01*
X161848397Y-106128166D01*
X161150000Y-105989246D01*
X160451603Y-106128166D01*
X159880000Y-106510098D01*
X159308397Y-106128166D01*
X158610000Y-105989246D01*
X157911603Y-106128166D01*
X157340000Y-106510098D01*
X156768397Y-106128166D01*
X156070000Y-105989246D01*
X155371603Y-106128166D01*
X154800000Y-106510098D01*
X154228397Y-106128166D01*
X153530000Y-105989246D01*
X152831603Y-106128166D01*
X152260000Y-106510098D01*
X151688397Y-106128166D01*
X150990000Y-105989246D01*
X150291603Y-106128166D01*
X149720000Y-106510098D01*
X149148397Y-106128166D01*
X148450000Y-105989246D01*
X147751603Y-106128166D01*
X147180000Y-106510098D01*
X146608397Y-106128166D01*
X145910000Y-105989246D01*
X145211603Y-106128166D01*
X144619530Y-106523776D01*
X144223920Y-107115849D01*
X144085000Y-107814246D01*
X144085000Y-107885754D01*
X144223920Y-108584151D01*
X144619530Y-109176224D01*
X145211603Y-109571834D01*
X145910000Y-109710754D01*
X146608397Y-109571834D01*
X147180000Y-109189902D01*
X147751603Y-109571834D01*
X148450000Y-109710754D01*
X149148397Y-109571834D01*
X149720000Y-109189902D01*
X150291603Y-109571834D01*
X150990000Y-109710754D01*
X151688397Y-109571834D01*
X152260000Y-109189902D01*
X152831603Y-109571834D01*
X153530000Y-109710754D01*
X154228397Y-109571834D01*
X154800000Y-109189902D01*
X155137299Y-109415277D01*
X155091296Y-109444879D01*
X154857258Y-109787405D01*
X154774920Y-110194000D01*
X154774920Y-111494000D01*
X154846392Y-111873842D01*
X155045000Y-112182487D01*
X155045000Y-112473194D01*
X154774290Y-112743432D01*
X154465352Y-113487435D01*
X154464649Y-114293030D01*
X154676818Y-114806517D01*
X154527258Y-115025405D01*
X154444920Y-115432000D01*
X154444920Y-116320404D01*
X153572324Y-117193000D01*
X144552000Y-117193000D01*
X143968408Y-117309084D01*
X143473662Y-117639662D01*
X138840324Y-122273000D01*
X136547676Y-122273000D01*
X136485000Y-122210324D01*
X136485000Y-121526365D01*
X136672742Y-121251595D01*
X136755080Y-120845000D01*
X136755080Y-119595000D01*
X136683608Y-119215158D01*
X136627449Y-119127884D01*
X136672742Y-119061595D01*
X136755080Y-118655000D01*
X136755080Y-117405000D01*
X136683608Y-117025158D01*
X136485000Y-116716513D01*
X136485000Y-116181557D01*
X136758943Y-116364600D01*
X137540000Y-116519962D01*
X138321057Y-116364600D01*
X138983205Y-115922167D01*
X139425638Y-115260019D01*
X139520585Y-114782689D01*
X139546392Y-114919842D01*
X139770879Y-115268704D01*
X140113405Y-115502742D01*
X140520000Y-115585080D01*
X141820000Y-115585080D01*
X142199842Y-115513608D01*
X142548704Y-115289121D01*
X142782742Y-114946595D01*
X142865080Y-114540000D01*
X142865080Y-113040000D01*
X142793608Y-112660158D01*
X142569121Y-112311296D01*
X142226595Y-112077258D01*
X141820000Y-111994920D01*
X141531596Y-111994920D01*
X140186676Y-110650000D01*
X141199400Y-109637276D01*
X141528397Y-109571834D01*
X142120470Y-109176224D01*
X142516080Y-108584151D01*
X142655000Y-107885754D01*
X142655000Y-107814246D01*
X142516080Y-107115849D01*
X142355000Y-106874775D01*
X142355000Y-106001000D01*
X142552742Y-105711595D01*
X142635080Y-105305000D01*
X142635080Y-104055000D01*
X142563608Y-103675158D01*
X142339121Y-103326296D01*
X141996595Y-103092258D01*
X141590000Y-103009920D01*
X140090000Y-103009920D01*
X139710158Y-103081392D01*
X139672378Y-103105702D01*
X137275000Y-100708324D01*
X137275000Y-93585225D01*
X137436080Y-93344151D01*
X137575000Y-92645754D01*
X137575000Y-92574246D01*
X137436080Y-91875849D01*
X137275000Y-91634775D01*
X137275000Y-90565636D01*
X137482742Y-90261595D01*
X137565080Y-89855000D01*
X137565080Y-88605000D01*
X137493608Y-88225158D01*
X137269121Y-87876296D01*
X136926595Y-87642258D01*
X136520000Y-87559920D01*
X135020000Y-87559920D01*
X134640158Y-87631392D01*
X134291296Y-87855879D01*
X134057258Y-88198405D01*
X133974920Y-88605000D01*
X133974920Y-89855000D01*
X134046392Y-90234842D01*
X134225000Y-90512406D01*
X134225000Y-91099713D01*
X133908397Y-90888166D01*
X133210000Y-90749246D01*
X132511603Y-90888166D01*
X131940000Y-91270098D01*
X131368397Y-90888166D01*
X130670000Y-90749246D01*
X129971603Y-90888166D01*
X129400000Y-91270098D01*
X128828397Y-90888166D01*
X128130000Y-90749246D01*
X127431603Y-90888166D01*
X126860000Y-91270098D01*
X126288397Y-90888166D01*
X125590000Y-90749246D01*
X124891603Y-90888166D01*
X124320000Y-91270098D01*
X123748397Y-90888166D01*
X123050000Y-90749246D01*
X122351603Y-90888166D01*
X121780000Y-91270098D01*
X121334351Y-90972325D01*
X121811596Y-90495080D01*
X122100000Y-90495080D01*
X122479842Y-90423608D01*
X122701014Y-90281287D01*
X122893405Y-90412742D01*
X123300000Y-90495080D01*
X124800000Y-90495080D01*
X125179842Y-90423608D01*
X125333083Y-90325000D01*
X127000000Y-90325000D01*
X127583592Y-90208916D01*
X128078338Y-89878338D01*
X131738338Y-86218338D01*
X132068916Y-85723592D01*
X132185000Y-85140000D01*
X132185000Y-84312635D01*
X132186424Y-84314061D01*
X132842984Y-84586689D01*
X133553897Y-84587309D01*
X134188734Y-84325000D01*
X136168324Y-84325000D01*
X136821662Y-84978338D01*
X137057165Y-85135696D01*
X137066508Y-85145055D01*
X137078829Y-85150171D01*
X137316408Y-85308916D01*
X137594204Y-85364173D01*
X137606416Y-85369244D01*
X137619755Y-85369256D01*
X137900000Y-85425000D01*
X138177798Y-85369742D01*
X138191019Y-85369754D01*
X138203346Y-85364661D01*
X138483592Y-85308916D01*
X138719096Y-85151558D01*
X138731317Y-85146508D01*
X138740758Y-85137084D01*
X138978338Y-84978338D01*
X139135696Y-84742835D01*
X139145055Y-84733492D01*
X139150171Y-84721171D01*
X139308916Y-84483592D01*
X139364173Y-84205796D01*
X139369244Y-84193584D01*
X139369256Y-84180245D01*
X139425000Y-83900000D01*
X139369742Y-83622202D01*
X139369754Y-83608981D01*
X139364661Y-83596654D01*
X139308916Y-83316408D01*
X139151558Y-83080904D01*
X139146508Y-83068683D01*
X139137084Y-83059242D01*
X138978338Y-82821662D01*
X137878338Y-81721662D01*
X137383592Y-81391084D01*
X136800000Y-81275000D01*
X134187232Y-81275000D01*
X133557016Y-81013311D01*
X132846103Y-81012691D01*
X132189068Y-81284172D01*
X131929989Y-81542800D01*
X131673576Y-81285939D01*
X131017016Y-81013311D01*
X130306103Y-81012691D01*
X129649068Y-81284172D01*
X129145939Y-81786424D01*
X128873311Y-82442984D01*
X128872691Y-83153897D01*
X129135000Y-83788734D01*
X129135000Y-84508324D01*
X127545085Y-86098239D01*
X127508916Y-85916408D01*
X127351558Y-85680904D01*
X127346508Y-85668683D01*
X127337084Y-85659242D01*
X127178338Y-85421662D01*
X125089229Y-83332553D01*
X125286689Y-82857016D01*
X125287309Y-82146103D01*
X125015828Y-81489068D01*
X124513576Y-80985939D01*
X123857016Y-80713311D01*
X123146103Y-80712691D01*
X122489068Y-80984172D01*
X122229989Y-81242800D01*
X121973576Y-80985939D01*
X121317016Y-80713311D01*
X120606103Y-80712691D01*
X119949068Y-80984172D01*
X119445939Y-81486424D01*
X119182522Y-82120802D01*
X117228404Y-84074920D01*
X116910000Y-84074920D01*
X116530158Y-84146392D01*
X116181296Y-84370879D01*
X115947258Y-84713405D01*
X115864920Y-85120000D01*
X115864920Y-86620000D01*
X115936392Y-86999842D01*
X116078713Y-87221014D01*
X115947258Y-87413405D01*
X115864920Y-87820000D01*
X115864920Y-88098404D01*
X114351662Y-89611662D01*
X114021084Y-90106408D01*
X113905000Y-90690000D01*
X113905000Y-91634775D01*
X113743920Y-91875849D01*
X113605000Y-92574246D01*
X113605000Y-92645754D01*
X113743920Y-93344151D01*
X114139530Y-93936224D01*
X114731603Y-94331834D01*
X115430000Y-94470754D01*
X116128397Y-94331834D01*
X116700000Y-93949902D01*
X117271603Y-94331834D01*
X117970000Y-94470754D01*
X118668397Y-94331834D01*
X119240000Y-93949902D01*
X119811603Y-94331834D01*
X120510000Y-94470754D01*
X121208397Y-94331834D01*
X121780000Y-93949902D01*
X122351603Y-94331834D01*
X123050000Y-94470754D01*
X123748397Y-94331834D01*
X124320000Y-93949902D01*
X124891603Y-94331834D01*
X125590000Y-94470754D01*
X126288397Y-94331834D01*
X126860000Y-93949902D01*
X127431603Y-94331834D01*
X128130000Y-94470754D01*
X128828397Y-94331834D01*
X129400000Y-93949902D01*
X129971603Y-94331834D01*
X130670000Y-94470754D01*
X131368397Y-94331834D01*
X131940000Y-93949902D01*
X132511603Y-94331834D01*
X133210000Y-94470754D01*
X133908397Y-94331834D01*
X134225000Y-94120287D01*
X134225000Y-101340000D01*
X134341084Y-101923592D01*
X134671662Y-102418338D01*
X138011662Y-105758338D01*
X138385743Y-106008291D01*
X138290000Y-105989246D01*
X137591603Y-106128166D01*
X137020000Y-106510098D01*
X136448397Y-106128166D01*
X135750000Y-105989246D01*
X135051603Y-106128166D01*
X134480000Y-106510098D01*
X133908397Y-106128166D01*
X133210000Y-105989246D01*
X132511603Y-106128166D01*
X131940000Y-106510098D01*
X131368397Y-106128166D01*
X130670000Y-105989246D01*
X129971603Y-106128166D01*
X129400000Y-106510098D01*
X128828397Y-106128166D01*
X128130000Y-105989246D01*
X127431603Y-106128166D01*
X126860000Y-106510098D01*
X126288397Y-106128166D01*
X125590000Y-105989246D01*
X124891603Y-106128166D01*
X124320000Y-106510098D01*
X123748397Y-106128166D01*
X123050000Y-105989246D01*
X122351603Y-106128166D01*
X121780000Y-106510098D01*
X121208397Y-106128166D01*
X120510000Y-105989246D01*
X119811603Y-106128166D01*
X119240000Y-106510098D01*
X118668397Y-106128166D01*
X117970000Y-105989246D01*
X117271603Y-106128166D01*
X116700000Y-106510098D01*
X116128397Y-106128166D01*
X115430000Y-105989246D01*
X114731603Y-106128166D01*
X114139530Y-106523776D01*
X113743920Y-107115849D01*
X113605000Y-107814246D01*
X113605000Y-107885754D01*
X113684415Y-108285000D01*
X113181676Y-108285000D01*
X112855000Y-107958324D01*
X112855000Y-86480000D01*
X112738916Y-85896408D01*
X112408338Y-85401662D01*
X108585000Y-81578324D01*
X108585000Y-81400000D01*
X108529742Y-81122202D01*
X108529754Y-81108981D01*
X108524661Y-81096654D01*
X108468916Y-80816408D01*
X108311558Y-80580904D01*
X108306508Y-80568683D01*
X108297084Y-80559242D01*
X108138338Y-80321662D01*
X107902835Y-80164304D01*
X107893492Y-80154945D01*
X107881171Y-80149829D01*
X107643592Y-79991084D01*
X107365796Y-79935827D01*
X107353584Y-79930756D01*
X107340245Y-79930744D01*
X107060000Y-79875000D01*
X106782202Y-79930258D01*
X106768981Y-79930246D01*
X106756654Y-79935339D01*
X106476408Y-79991084D01*
X106240904Y-80148442D01*
X106228683Y-80153492D01*
X106219242Y-80162916D01*
X105995000Y-80312750D01*
X105995000Y-78921507D01*
X106297071Y-78719670D01*
X106672464Y-78645000D01*
X111170000Y-78645000D01*
X111174877Y-78644520D01*
X111557560Y-78568400D01*
X111566572Y-78564667D01*
X111890996Y-78347894D01*
X111897894Y-78340996D01*
X112114667Y-78016572D01*
X112118400Y-78007560D01*
X112136599Y-77916069D01*
X112154110Y-77919615D01*
X112155000Y-78552592D01*
X112156719Y-78561667D01*
X112162098Y-78570007D01*
X112170297Y-78575597D01*
X112180026Y-78577557D01*
X160940281Y-78527308D01*
X154233794Y-85233794D01*
X153968248Y-85631213D01*
X153875000Y-86100000D01*
X153875000Y-90817871D01*
X153530000Y-90749246D01*
X152831603Y-90888166D01*
X152260000Y-91270098D01*
X151688397Y-90888166D01*
X150990000Y-90749246D01*
X150291603Y-90888166D01*
X149720000Y-91270098D01*
X149148397Y-90888166D01*
X148450000Y-90749246D01*
X147751603Y-90888166D01*
X147180000Y-91270098D01*
X146608397Y-90888166D01*
X145910000Y-90749246D01*
X145211603Y-90888166D01*
X144640000Y-91270098D01*
X144068397Y-90888166D01*
X143370000Y-90749246D01*
X142671603Y-90888166D01*
X142100000Y-91270098D01*
X141528397Y-90888166D01*
X140830000Y-90749246D01*
X140131603Y-90888166D01*
X139539530Y-91283776D01*
X139143920Y-91875849D01*
X139005000Y-92574246D01*
X139005000Y-92645754D01*
X139143920Y-93344151D01*
X139539530Y-93936224D01*
X140131603Y-94331834D01*
X140830000Y-94470754D01*
X141528397Y-94331834D01*
X142100000Y-93949902D01*
X142671603Y-94331834D01*
X143370000Y-94470754D01*
X144068397Y-94331834D01*
X144640000Y-93949902D01*
X145211603Y-94331834D01*
X145910000Y-94470754D01*
X146608397Y-94331834D01*
X147180000Y-93949902D01*
X147751603Y-94331834D01*
X148450000Y-94470754D01*
X149148397Y-94331834D01*
X149720000Y-93949902D01*
X150291603Y-94331834D01*
X150990000Y-94470754D01*
X151688397Y-94331834D01*
X152260000Y-93949902D01*
X152831603Y-94331834D01*
X153530000Y-94470754D01*
X154228397Y-94331834D01*
X154800000Y-93949902D01*
X155371603Y-94331834D01*
X156070000Y-94470754D01*
X156768397Y-94331834D01*
X157340000Y-93949902D01*
X157911603Y-94331834D01*
X158610000Y-94470754D01*
X159308397Y-94331834D01*
X159880000Y-93949902D01*
X160451603Y-94331834D01*
X161150000Y-94470754D01*
X161848397Y-94331834D01*
X162420000Y-93949902D01*
X162991603Y-94331834D01*
X163690000Y-94470754D01*
X164388397Y-94331834D01*
X164980470Y-93936224D01*
X165376080Y-93344151D01*
X165515000Y-92645754D01*
X165515000Y-92574246D01*
X165376080Y-91875849D01*
X164980470Y-91283776D01*
X164388397Y-90888166D01*
X163690000Y-90749246D01*
X162991603Y-90888166D01*
X162420000Y-91270098D01*
X161848397Y-90888166D01*
X161150000Y-90749246D01*
X160451603Y-90888166D01*
X159880000Y-91270098D01*
X159308397Y-90888166D01*
X158610000Y-90749246D01*
X158502951Y-90770539D01*
X157525000Y-89792588D01*
X157525000Y-87938255D01*
X157760000Y-87985000D01*
X159485587Y-87985000D01*
X159470827Y-88059204D01*
X159465756Y-88071416D01*
X159465744Y-88084755D01*
X159410000Y-88365000D01*
X159465258Y-88642798D01*
X159465246Y-88656019D01*
X159470339Y-88668346D01*
X159526084Y-88948592D01*
X159683442Y-89184096D01*
X159688492Y-89196317D01*
X159697916Y-89205758D01*
X159856662Y-89443338D01*
X160092165Y-89600696D01*
X160101508Y-89610055D01*
X160113829Y-89615171D01*
X160351408Y-89773916D01*
X160629204Y-89829173D01*
X160641416Y-89834244D01*
X160654755Y-89834256D01*
X160935000Y-89890000D01*
X163054556Y-89890000D01*
X163559168Y-90227172D01*
X164330505Y-90380600D01*
X166429495Y-90380600D01*
X167200832Y-90227172D01*
X167854739Y-89790244D01*
X168291667Y-89136337D01*
X168445095Y-88365000D01*
X168291667Y-87593663D01*
X167854739Y-86939756D01*
X167200832Y-86502828D01*
X166429495Y-86349400D01*
X164552276Y-86349400D01*
X165521076Y-85380600D01*
X166429495Y-85380600D01*
X167200832Y-85227172D01*
X167854739Y-84790244D01*
X168291667Y-84136337D01*
X168445095Y-83365000D01*
X168291667Y-82593663D01*
X167854739Y-81939756D01*
X167200832Y-81502828D01*
X166429495Y-81349400D01*
X164330505Y-81349400D01*
X163559168Y-81502828D01*
X162905261Y-81939756D01*
X162468333Y-82593663D01*
X162314905Y-83365000D01*
X162465621Y-84122703D01*
X161653324Y-84935000D01*
X159297412Y-84935000D01*
X164566206Y-79666206D01*
X164831752Y-79268787D01*
X164925000Y-78800000D01*
X164925000Y-76896213D01*
X164987909Y-76959232D01*
X164987909Y-76959232D01*
G37*
X164987909Y-76959232D02*
X165915569Y-77344431D01*
X166920024Y-77345307D01*
X167191120Y-77233293D01*
X168652676Y-78638025D01*
X168665123Y-78644520D01*
X168845000Y-78680300D01*
X168845000Y-120059700D01*
X168667536Y-120095000D01*
X163670000Y-120095000D01*
X163665123Y-120095480D01*
X163282440Y-120171600D01*
X163273428Y-120175333D01*
X162949004Y-120392106D01*
X162942106Y-120399004D01*
X162725333Y-120723428D01*
X162721600Y-120732440D01*
X162645480Y-121115123D01*
X162645000Y-121120000D01*
X162645000Y-126117536D01*
X162570330Y-126492929D01*
X162568946Y-126495000D01*
X112271054Y-126495000D01*
X112269670Y-126492929D01*
X112195000Y-126117536D01*
X112195000Y-121120000D01*
X112194520Y-121115123D01*
X112118400Y-120732440D01*
X112114667Y-120723428D01*
X111897894Y-120399004D01*
X111890996Y-120392106D01*
X111566572Y-120175333D01*
X111557560Y-120171600D01*
X111174877Y-120095480D01*
X111170000Y-120095000D01*
X106672464Y-120095000D01*
X106297071Y-120020330D01*
X105995000Y-119818493D01*
X105995000Y-109175876D01*
X106000123Y-109150123D01*
X106025876Y-109145000D01*
X108920000Y-109145000D01*
X109023844Y-109124344D01*
X109129721Y-109124344D01*
X109512404Y-109048224D01*
X109866936Y-108901373D01*
X109921084Y-109173592D01*
X110251662Y-109668338D01*
X111471662Y-110888338D01*
X111966408Y-111218916D01*
X112550000Y-111335001D01*
X112550005Y-111335000D01*
X115251908Y-111335000D01*
X115235000Y-111420000D01*
X115235000Y-112650248D01*
X114874362Y-113189981D01*
X114719000Y-113971038D01*
X114719000Y-114568962D01*
X114874362Y-115350019D01*
X115235000Y-115889752D01*
X115235000Y-116160324D01*
X114009662Y-117385662D01*
X113679084Y-117880408D01*
X113563000Y-118464000D01*
X113563000Y-120710556D01*
X113225828Y-121215168D01*
X113072400Y-121986505D01*
X113072400Y-124085495D01*
X113225828Y-124856832D01*
X113662756Y-125510739D01*
X114316663Y-125947667D01*
X115088000Y-126101095D01*
X115859337Y-125947667D01*
X116513244Y-125510739D01*
X116950172Y-124856832D01*
X117103600Y-124085495D01*
X117103600Y-123685076D01*
X119783676Y-121005000D01*
X122330324Y-121005000D01*
X124502400Y-123177076D01*
X124502400Y-124085495D01*
X124655828Y-124856832D01*
X125092756Y-125510739D01*
X125746663Y-125947667D01*
X126518000Y-126101095D01*
X127289337Y-125947667D01*
X127943244Y-125510739D01*
X128380172Y-124856832D01*
X128533600Y-124085495D01*
X128533600Y-121986505D01*
X128380172Y-121215168D01*
X127943244Y-120561261D01*
X127289337Y-120124333D01*
X126518000Y-119970905D01*
X125760297Y-120121621D01*
X124040338Y-118401662D01*
X123545592Y-118071084D01*
X122962000Y-117955000D01*
X119152000Y-117955000D01*
X118568408Y-118071084D01*
X118073662Y-118401662D01*
X116613000Y-119862324D01*
X116613000Y-119095676D01*
X117838338Y-117870338D01*
X118168916Y-117375592D01*
X118285000Y-116792000D01*
X118285000Y-116298284D01*
X118518943Y-116454600D01*
X119300000Y-116609962D01*
X120081057Y-116454600D01*
X120570000Y-116127899D01*
X121058943Y-116454600D01*
X121840000Y-116609962D01*
X122621057Y-116454600D01*
X123283205Y-116012167D01*
X123428311Y-115795000D01*
X123988496Y-115795000D01*
X123990879Y-115798704D01*
X124333405Y-116032742D01*
X124740000Y-116115080D01*
X126040000Y-116115080D01*
X126419842Y-116043608D01*
X126768704Y-115819121D01*
X127002742Y-115476595D01*
X127010795Y-115436830D01*
X127238408Y-115588916D01*
X127822000Y-115705000D01*
X130871689Y-115705000D01*
X131016795Y-115922167D01*
X131678943Y-116364600D01*
X132460000Y-116519962D01*
X133241057Y-116364600D01*
X133435000Y-116235011D01*
X133435000Y-116723635D01*
X133247258Y-116998405D01*
X133164920Y-117405000D01*
X133164920Y-118655000D01*
X133236392Y-119034842D01*
X133292551Y-119122116D01*
X133247258Y-119188405D01*
X133164920Y-119595000D01*
X133164920Y-120845000D01*
X133236392Y-121224842D01*
X133435000Y-121533487D01*
X133435000Y-122842000D01*
X133551084Y-123425592D01*
X133881662Y-123920338D01*
X134837662Y-124876338D01*
X135332408Y-125206916D01*
X135916000Y-125323000D01*
X139472000Y-125323000D01*
X140055592Y-125206916D01*
X140550338Y-124876338D01*
X145183676Y-120243000D01*
X148429066Y-120243000D01*
X147952756Y-120561261D01*
X147515828Y-121215168D01*
X147381086Y-121892566D01*
X147283662Y-121957662D01*
X146968324Y-122273000D01*
X143790000Y-122273000D01*
X143512202Y-122328258D01*
X143498981Y-122328246D01*
X143486654Y-122333339D01*
X143206408Y-122389084D01*
X142970904Y-122546442D01*
X142958683Y-122551492D01*
X142949242Y-122560916D01*
X142711662Y-122719662D01*
X142554304Y-122955165D01*
X142544945Y-122964508D01*
X142539829Y-122976829D01*
X142381084Y-123214408D01*
X142325827Y-123492204D01*
X142320756Y-123504416D01*
X142320744Y-123517755D01*
X142265000Y-123798000D01*
X142320258Y-124075798D01*
X142320246Y-124089019D01*
X142325339Y-124101346D01*
X142381084Y-124381592D01*
X142538442Y-124617096D01*
X142543492Y-124629317D01*
X142552916Y-124638758D01*
X142711662Y-124876338D01*
X142947165Y-125033696D01*
X142956508Y-125043055D01*
X142968829Y-125048171D01*
X143206408Y-125206916D01*
X143484204Y-125262173D01*
X143496416Y-125267244D01*
X143509755Y-125267256D01*
X143790000Y-125323000D01*
X147600000Y-125323000D01*
X147800645Y-125283089D01*
X147952756Y-125510739D01*
X148606663Y-125947667D01*
X149378000Y-126101095D01*
X150149337Y-125947667D01*
X150803244Y-125510739D01*
X151240172Y-124856832D01*
X151393600Y-124085495D01*
X151393600Y-121986505D01*
X151240172Y-121215168D01*
X150803244Y-120561261D01*
X150326934Y-120243000D01*
X154204000Y-120243000D01*
X154787592Y-120126916D01*
X155282338Y-119796338D01*
X156601596Y-118477080D01*
X157490000Y-118477080D01*
X157869842Y-118405608D01*
X157977866Y-118336096D01*
X158200000Y-118381080D01*
X159700000Y-118381080D01*
X160079842Y-118309608D01*
X160301014Y-118167287D01*
X160493405Y-118298742D01*
X160900000Y-118381080D01*
X162400000Y-118381080D01*
X162707965Y-118323133D01*
X163305168Y-118722172D01*
X164076505Y-118875600D01*
X166175495Y-118875600D01*
X166946832Y-118722172D01*
X167600739Y-118285244D01*
X168037667Y-117631337D01*
X168191095Y-116860000D01*
X168037667Y-116088663D01*
X167600739Y-115434756D01*
X166946832Y-114997828D01*
X166175495Y-114844400D01*
X164076505Y-114844400D01*
X163305168Y-114997828D01*
X163060965Y-115161000D01*
X162935010Y-115161000D01*
X162806595Y-115073258D01*
X162400000Y-114990920D01*
X160900000Y-114990920D01*
X160520158Y-115062392D01*
X160298986Y-115204713D01*
X160106595Y-115073258D01*
X159700000Y-114990920D01*
X159117893Y-114990920D01*
X158696000Y-114907000D01*
X158370201Y-114907000D01*
X158303934Y-114804018D01*
X158514648Y-114296565D01*
X158515351Y-113490970D01*
X158207712Y-112746428D01*
X158095000Y-112633519D01*
X158095000Y-112175365D01*
X158282742Y-111900595D01*
X158365080Y-111494000D01*
X158365080Y-110194000D01*
X158293608Y-109814158D01*
X158170861Y-109623404D01*
X158610000Y-109710754D01*
X159308397Y-109571834D01*
X159625000Y-109360287D01*
X159625000Y-110805000D01*
X159741084Y-111388592D01*
X160071662Y-111883338D01*
X161126662Y-112938338D01*
X161621408Y-113268916D01*
X162205000Y-113385000D01*
X162800556Y-113385000D01*
X163305168Y-113722172D01*
X164076505Y-113875600D01*
X166175495Y-113875600D01*
X166946832Y-113722172D01*
X167600739Y-113285244D01*
X168037667Y-112631337D01*
X168191095Y-111860000D01*
X168037667Y-111088663D01*
X167600739Y-110434756D01*
X166946832Y-109997828D01*
X166175495Y-109844400D01*
X164076505Y-109844400D01*
X163305168Y-109997828D01*
X162822208Y-110320532D01*
X162675000Y-110173324D01*
X162675000Y-109360287D01*
X162991603Y-109571834D01*
X163690000Y-109710754D01*
X164388397Y-109571834D01*
X164980470Y-109176224D01*
X165376080Y-108584151D01*
X165515000Y-107885754D01*
X165515000Y-107814246D01*
X165376080Y-107115849D01*
X164980470Y-106523776D01*
X164388397Y-106128166D01*
X163690000Y-105989246D01*
X162991603Y-106128166D01*
X162420000Y-106510098D01*
X161848397Y-106128166D01*
X161150000Y-105989246D01*
X160451603Y-106128166D01*
X159880000Y-106510098D01*
X159308397Y-106128166D01*
X158610000Y-105989246D01*
X157911603Y-106128166D01*
X157340000Y-106510098D01*
X156768397Y-106128166D01*
X156070000Y-105989246D01*
X155371603Y-106128166D01*
X154800000Y-106510098D01*
X154228397Y-106128166D01*
X153530000Y-105989246D01*
X152831603Y-106128166D01*
X152260000Y-106510098D01*
X151688397Y-106128166D01*
X150990000Y-105989246D01*
X150291603Y-106128166D01*
X149720000Y-106510098D01*
X149148397Y-106128166D01*
X148450000Y-105989246D01*
X147751603Y-106128166D01*
X147180000Y-106510098D01*
X146608397Y-106128166D01*
X145910000Y-105989246D01*
X145211603Y-106128166D01*
X144619530Y-106523776D01*
X144223920Y-107115849D01*
X144085000Y-107814246D01*
X144085000Y-107885754D01*
X144223920Y-108584151D01*
X144619530Y-109176224D01*
X145211603Y-109571834D01*
X145910000Y-109710754D01*
X146608397Y-109571834D01*
X147180000Y-109189902D01*
X147751603Y-109571834D01*
X148450000Y-109710754D01*
X149148397Y-109571834D01*
X149720000Y-109189902D01*
X150291603Y-109571834D01*
X150990000Y-109710754D01*
X151688397Y-109571834D01*
X152260000Y-109189902D01*
X152831603Y-109571834D01*
X153530000Y-109710754D01*
X154228397Y-109571834D01*
X154800000Y-109189902D01*
X155137299Y-109415277D01*
X155091296Y-109444879D01*
X154857258Y-109787405D01*
X154774920Y-110194000D01*
X154774920Y-111494000D01*
X154846392Y-111873842D01*
X155045000Y-112182487D01*
X155045000Y-112473194D01*
X154774290Y-112743432D01*
X154465352Y-113487435D01*
X154464649Y-114293030D01*
X154676818Y-114806517D01*
X154527258Y-115025405D01*
X154444920Y-115432000D01*
X154444920Y-116320404D01*
X153572324Y-117193000D01*
X144552000Y-117193000D01*
X143968408Y-117309084D01*
X143473662Y-117639662D01*
X138840324Y-122273000D01*
X136547676Y-122273000D01*
X136485000Y-122210324D01*
X136485000Y-121526365D01*
X136672742Y-121251595D01*
X136755080Y-120845000D01*
X136755080Y-119595000D01*
X136683608Y-119215158D01*
X136627449Y-119127884D01*
X136672742Y-119061595D01*
X136755080Y-118655000D01*
X136755080Y-117405000D01*
X136683608Y-117025158D01*
X136485000Y-116716513D01*
X136485000Y-116181557D01*
X136758943Y-116364600D01*
X137540000Y-116519962D01*
X138321057Y-116364600D01*
X138983205Y-115922167D01*
X139425638Y-115260019D01*
X139520585Y-114782689D01*
X139546392Y-114919842D01*
X139770879Y-115268704D01*
X140113405Y-115502742D01*
X140520000Y-115585080D01*
X141820000Y-115585080D01*
X142199842Y-115513608D01*
X142548704Y-115289121D01*
X142782742Y-114946595D01*
X142865080Y-114540000D01*
X142865080Y-113040000D01*
X142793608Y-112660158D01*
X142569121Y-112311296D01*
X142226595Y-112077258D01*
X141820000Y-111994920D01*
X141531596Y-111994920D01*
X140186676Y-110650000D01*
X141199400Y-109637276D01*
X141528397Y-109571834D01*
X142120470Y-109176224D01*
X142516080Y-108584151D01*
X142655000Y-107885754D01*
X142655000Y-107814246D01*
X142516080Y-107115849D01*
X142355000Y-106874775D01*
X142355000Y-106001000D01*
X142552742Y-105711595D01*
X142635080Y-105305000D01*
X142635080Y-104055000D01*
X142563608Y-103675158D01*
X142339121Y-103326296D01*
X141996595Y-103092258D01*
X141590000Y-103009920D01*
X140090000Y-103009920D01*
X139710158Y-103081392D01*
X139672378Y-103105702D01*
X137275000Y-100708324D01*
X137275000Y-93585225D01*
X137436080Y-93344151D01*
X137575000Y-92645754D01*
X137575000Y-92574246D01*
X137436080Y-91875849D01*
X137275000Y-91634775D01*
X137275000Y-90565636D01*
X137482742Y-90261595D01*
X137565080Y-89855000D01*
X137565080Y-88605000D01*
X137493608Y-88225158D01*
X137269121Y-87876296D01*
X136926595Y-87642258D01*
X136520000Y-87559920D01*
X135020000Y-87559920D01*
X134640158Y-87631392D01*
X134291296Y-87855879D01*
X134057258Y-88198405D01*
X133974920Y-88605000D01*
X133974920Y-89855000D01*
X134046392Y-90234842D01*
X134225000Y-90512406D01*
X134225000Y-91099713D01*
X133908397Y-90888166D01*
X133210000Y-90749246D01*
X132511603Y-90888166D01*
X131940000Y-91270098D01*
X131368397Y-90888166D01*
X130670000Y-90749246D01*
X129971603Y-90888166D01*
X129400000Y-91270098D01*
X128828397Y-90888166D01*
X128130000Y-90749246D01*
X127431603Y-90888166D01*
X126860000Y-91270098D01*
X126288397Y-90888166D01*
X125590000Y-90749246D01*
X124891603Y-90888166D01*
X124320000Y-91270098D01*
X123748397Y-90888166D01*
X123050000Y-90749246D01*
X122351603Y-90888166D01*
X121780000Y-91270098D01*
X121334351Y-90972325D01*
X121811596Y-90495080D01*
X122100000Y-90495080D01*
X122479842Y-90423608D01*
X122701014Y-90281287D01*
X122893405Y-90412742D01*
X123300000Y-90495080D01*
X124800000Y-90495080D01*
X125179842Y-90423608D01*
X125333083Y-90325000D01*
X127000000Y-90325000D01*
X127583592Y-90208916D01*
X128078338Y-89878338D01*
X131738338Y-86218338D01*
X132068916Y-85723592D01*
X132185000Y-85140000D01*
X132185000Y-84312635D01*
X132186424Y-84314061D01*
X132842984Y-84586689D01*
X133553897Y-84587309D01*
X134188734Y-84325000D01*
X136168324Y-84325000D01*
X136821662Y-84978338D01*
X137057165Y-85135696D01*
X137066508Y-85145055D01*
X137078829Y-85150171D01*
X137316408Y-85308916D01*
X137594204Y-85364173D01*
X137606416Y-85369244D01*
X137619755Y-85369256D01*
X137900000Y-85425000D01*
X138177798Y-85369742D01*
X138191019Y-85369754D01*
X138203346Y-85364661D01*
X138483592Y-85308916D01*
X138719096Y-85151558D01*
X138731317Y-85146508D01*
X138740758Y-85137084D01*
X138978338Y-84978338D01*
X139135696Y-84742835D01*
X139145055Y-84733492D01*
X139150171Y-84721171D01*
X139308916Y-84483592D01*
X139364173Y-84205796D01*
X139369244Y-84193584D01*
X139369256Y-84180245D01*
X139425000Y-83900000D01*
X139369742Y-83622202D01*
X139369754Y-83608981D01*
X139364661Y-83596654D01*
X139308916Y-83316408D01*
X139151558Y-83080904D01*
X139146508Y-83068683D01*
X139137084Y-83059242D01*
X138978338Y-82821662D01*
X137878338Y-81721662D01*
X137383592Y-81391084D01*
X136800000Y-81275000D01*
X134187232Y-81275000D01*
X133557016Y-81013311D01*
X132846103Y-81012691D01*
X132189068Y-81284172D01*
X131929989Y-81542800D01*
X131673576Y-81285939D01*
X131017016Y-81013311D01*
X130306103Y-81012691D01*
X129649068Y-81284172D01*
X129145939Y-81786424D01*
X128873311Y-82442984D01*
X128872691Y-83153897D01*
X129135000Y-83788734D01*
X129135000Y-84508324D01*
X127545085Y-86098239D01*
X127508916Y-85916408D01*
X127351558Y-85680904D01*
X127346508Y-85668683D01*
X127337084Y-85659242D01*
X127178338Y-85421662D01*
X125089229Y-83332553D01*
X125286689Y-82857016D01*
X125287309Y-82146103D01*
X125015828Y-81489068D01*
X124513576Y-80985939D01*
X123857016Y-80713311D01*
X123146103Y-80712691D01*
X122489068Y-80984172D01*
X122229989Y-81242800D01*
X121973576Y-80985939D01*
X121317016Y-80713311D01*
X120606103Y-80712691D01*
X119949068Y-80984172D01*
X119445939Y-81486424D01*
X119182522Y-82120802D01*
X117228404Y-84074920D01*
X116910000Y-84074920D01*
X116530158Y-84146392D01*
X116181296Y-84370879D01*
X115947258Y-84713405D01*
X115864920Y-85120000D01*
X115864920Y-86620000D01*
X115936392Y-86999842D01*
X116078713Y-87221014D01*
X115947258Y-87413405D01*
X115864920Y-87820000D01*
X115864920Y-88098404D01*
X114351662Y-89611662D01*
X114021084Y-90106408D01*
X113905000Y-90690000D01*
X113905000Y-91634775D01*
X113743920Y-91875849D01*
X113605000Y-92574246D01*
X113605000Y-92645754D01*
X113743920Y-93344151D01*
X114139530Y-93936224D01*
X114731603Y-94331834D01*
X115430000Y-94470754D01*
X116128397Y-94331834D01*
X116700000Y-93949902D01*
X117271603Y-94331834D01*
X117970000Y-94470754D01*
X118668397Y-94331834D01*
X119240000Y-93949902D01*
X119811603Y-94331834D01*
X120510000Y-94470754D01*
X121208397Y-94331834D01*
X121780000Y-93949902D01*
X122351603Y-94331834D01*
X123050000Y-94470754D01*
X123748397Y-94331834D01*
X124320000Y-93949902D01*
X124891603Y-94331834D01*
X125590000Y-94470754D01*
X126288397Y-94331834D01*
X126860000Y-93949902D01*
X127431603Y-94331834D01*
X128130000Y-94470754D01*
X128828397Y-94331834D01*
X129400000Y-93949902D01*
X129971603Y-94331834D01*
X130670000Y-94470754D01*
X131368397Y-94331834D01*
X131940000Y-93949902D01*
X132511603Y-94331834D01*
X133210000Y-94470754D01*
X133908397Y-94331834D01*
X134225000Y-94120287D01*
X134225000Y-101340000D01*
X134341084Y-101923592D01*
X134671662Y-102418338D01*
X138011662Y-105758338D01*
X138385743Y-106008291D01*
X138290000Y-105989246D01*
X137591603Y-106128166D01*
X137020000Y-106510098D01*
X136448397Y-106128166D01*
X135750000Y-105989246D01*
X135051603Y-106128166D01*
X134480000Y-106510098D01*
X133908397Y-106128166D01*
X133210000Y-105989246D01*
X132511603Y-106128166D01*
X131940000Y-106510098D01*
X131368397Y-106128166D01*
X130670000Y-105989246D01*
X129971603Y-106128166D01*
X129400000Y-106510098D01*
X128828397Y-106128166D01*
X128130000Y-105989246D01*
X127431603Y-106128166D01*
X126860000Y-106510098D01*
X126288397Y-106128166D01*
X125590000Y-105989246D01*
X124891603Y-106128166D01*
X124320000Y-106510098D01*
X123748397Y-106128166D01*
X123050000Y-105989246D01*
X122351603Y-106128166D01*
X121780000Y-106510098D01*
X121208397Y-106128166D01*
X120510000Y-105989246D01*
X119811603Y-106128166D01*
X119240000Y-106510098D01*
X118668397Y-106128166D01*
X117970000Y-105989246D01*
X117271603Y-106128166D01*
X116700000Y-106510098D01*
X116128397Y-106128166D01*
X115430000Y-105989246D01*
X114731603Y-106128166D01*
X114139530Y-106523776D01*
X113743920Y-107115849D01*
X113605000Y-107814246D01*
X113605000Y-107885754D01*
X113684415Y-108285000D01*
X113181676Y-108285000D01*
X112855000Y-107958324D01*
X112855000Y-86480000D01*
X112738916Y-85896408D01*
X112408338Y-85401662D01*
X108585000Y-81578324D01*
X108585000Y-81400000D01*
X108529742Y-81122202D01*
X108529754Y-81108981D01*
X108524661Y-81096654D01*
X108468916Y-80816408D01*
X108311558Y-80580904D01*
X108306508Y-80568683D01*
X108297084Y-80559242D01*
X108138338Y-80321662D01*
X107902835Y-80164304D01*
X107893492Y-80154945D01*
X107881171Y-80149829D01*
X107643592Y-79991084D01*
X107365796Y-79935827D01*
X107353584Y-79930756D01*
X107340245Y-79930744D01*
X107060000Y-79875000D01*
X106782202Y-79930258D01*
X106768981Y-79930246D01*
X106756654Y-79935339D01*
X106476408Y-79991084D01*
X106240904Y-80148442D01*
X106228683Y-80153492D01*
X106219242Y-80162916D01*
X105995000Y-80312750D01*
X105995000Y-78921507D01*
X106297071Y-78719670D01*
X106672464Y-78645000D01*
X111170000Y-78645000D01*
X111174877Y-78644520D01*
X111557560Y-78568400D01*
X111566572Y-78564667D01*
X111890996Y-78347894D01*
X111897894Y-78340996D01*
X112114667Y-78016572D01*
X112118400Y-78007560D01*
X112136599Y-77916069D01*
X112154110Y-77919615D01*
X112155000Y-78552592D01*
X112156719Y-78561667D01*
X112162098Y-78570007D01*
X112170297Y-78575597D01*
X112180026Y-78577557D01*
X160940281Y-78527308D01*
X154233794Y-85233794D01*
X153968248Y-85631213D01*
X153875000Y-86100000D01*
X153875000Y-90817871D01*
X153530000Y-90749246D01*
X152831603Y-90888166D01*
X152260000Y-91270098D01*
X151688397Y-90888166D01*
X150990000Y-90749246D01*
X150291603Y-90888166D01*
X149720000Y-91270098D01*
X149148397Y-90888166D01*
X148450000Y-90749246D01*
X147751603Y-90888166D01*
X147180000Y-91270098D01*
X146608397Y-90888166D01*
X145910000Y-90749246D01*
X145211603Y-90888166D01*
X144640000Y-91270098D01*
X144068397Y-90888166D01*
X143370000Y-90749246D01*
X142671603Y-90888166D01*
X142100000Y-91270098D01*
X141528397Y-90888166D01*
X140830000Y-90749246D01*
X140131603Y-90888166D01*
X139539530Y-91283776D01*
X139143920Y-91875849D01*
X139005000Y-92574246D01*
X139005000Y-92645754D01*
X139143920Y-93344151D01*
X139539530Y-93936224D01*
X140131603Y-94331834D01*
X140830000Y-94470754D01*
X141528397Y-94331834D01*
X142100000Y-93949902D01*
X142671603Y-94331834D01*
X143370000Y-94470754D01*
X144068397Y-94331834D01*
X144640000Y-93949902D01*
X145211603Y-94331834D01*
X145910000Y-94470754D01*
X146608397Y-94331834D01*
X147180000Y-93949902D01*
X147751603Y-94331834D01*
X148450000Y-94470754D01*
X149148397Y-94331834D01*
X149720000Y-93949902D01*
X150291603Y-94331834D01*
X150990000Y-94470754D01*
X151688397Y-94331834D01*
X152260000Y-93949902D01*
X152831603Y-94331834D01*
X153530000Y-94470754D01*
X154228397Y-94331834D01*
X154800000Y-93949902D01*
X155371603Y-94331834D01*
X156070000Y-94470754D01*
X156768397Y-94331834D01*
X157340000Y-93949902D01*
X157911603Y-94331834D01*
X158610000Y-94470754D01*
X159308397Y-94331834D01*
X159880000Y-93949902D01*
X160451603Y-94331834D01*
X161150000Y-94470754D01*
X161848397Y-94331834D01*
X162420000Y-93949902D01*
X162991603Y-94331834D01*
X163690000Y-94470754D01*
X164388397Y-94331834D01*
X164980470Y-93936224D01*
X165376080Y-93344151D01*
X165515000Y-92645754D01*
X165515000Y-92574246D01*
X165376080Y-91875849D01*
X164980470Y-91283776D01*
X164388397Y-90888166D01*
X163690000Y-90749246D01*
X162991603Y-90888166D01*
X162420000Y-91270098D01*
X161848397Y-90888166D01*
X161150000Y-90749246D01*
X160451603Y-90888166D01*
X159880000Y-91270098D01*
X159308397Y-90888166D01*
X158610000Y-90749246D01*
X158502951Y-90770539D01*
X157525000Y-89792588D01*
X157525000Y-87938255D01*
X157760000Y-87985000D01*
X159485587Y-87985000D01*
X159470827Y-88059204D01*
X159465756Y-88071416D01*
X159465744Y-88084755D01*
X159410000Y-88365000D01*
X159465258Y-88642798D01*
X159465246Y-88656019D01*
X159470339Y-88668346D01*
X159526084Y-88948592D01*
X159683442Y-89184096D01*
X159688492Y-89196317D01*
X159697916Y-89205758D01*
X159856662Y-89443338D01*
X160092165Y-89600696D01*
X160101508Y-89610055D01*
X160113829Y-89615171D01*
X160351408Y-89773916D01*
X160629204Y-89829173D01*
X160641416Y-89834244D01*
X160654755Y-89834256D01*
X160935000Y-89890000D01*
X163054556Y-89890000D01*
X163559168Y-90227172D01*
X164330505Y-90380600D01*
X166429495Y-90380600D01*
X167200832Y-90227172D01*
X167854739Y-89790244D01*
X168291667Y-89136337D01*
X168445095Y-88365000D01*
X168291667Y-87593663D01*
X167854739Y-86939756D01*
X167200832Y-86502828D01*
X166429495Y-86349400D01*
X164552276Y-86349400D01*
X165521076Y-85380600D01*
X166429495Y-85380600D01*
X167200832Y-85227172D01*
X167854739Y-84790244D01*
X168291667Y-84136337D01*
X168445095Y-83365000D01*
X168291667Y-82593663D01*
X167854739Y-81939756D01*
X167200832Y-81502828D01*
X166429495Y-81349400D01*
X164330505Y-81349400D01*
X163559168Y-81502828D01*
X162905261Y-81939756D01*
X162468333Y-82593663D01*
X162314905Y-83365000D01*
X162465621Y-84122703D01*
X161653324Y-84935000D01*
X159297412Y-84935000D01*
X164566206Y-79666206D01*
X164831752Y-79268787D01*
X164925000Y-78800000D01*
X164925000Y-76896213D01*
X164987909Y-76959232D01*
M02*
