M48
;DRILL file {KiCad 4.0.2-stable} date Sat 04 Jun 2016 09:29:46 PM CEST
;FORMAT={-:-/ absolute / metric / decimal}
FMAT,2
METRIC,TZ
T1C0.635
T2C0.800
T3C1.001
T4C1.016
T5C1.143
T6C1.321
T7C3.000
%
G90
G05
M71
T1
X107.06Y-81.4
X108.6Y-110.449
X111.14Y-73.87
X115.377Y-81.241
X116.78Y-111.4
X126.1Y-86.5
X127.788Y-114.146
X137.9Y-83.9
X143.79Y-123.798
X157.76Y-86.46
X160.935Y-88.365
T2
X115.43Y-92.61
X115.43Y-107.85
X117.97Y-92.61
X117.97Y-107.85
X118.42Y-82.5
X120.51Y-92.61
X120.51Y-107.85
X120.96Y-82.5
X123.05Y-92.61
X123.05Y-107.85
X123.5Y-82.5
X125.59Y-92.61
X125.59Y-107.85
X128.12Y-82.8
X128.13Y-92.61
X128.13Y-107.85
X130.66Y-82.8
X130.67Y-92.61
X130.67Y-107.85
X133.2Y-82.8
X133.21Y-92.61
X133.21Y-107.85
X135.75Y-92.61
X135.75Y-107.85
X138.29Y-92.61
X138.29Y-107.85
X140.83Y-92.61
X140.83Y-107.85
X143.37Y-92.61
X143.37Y-107.85
X145.91Y-92.61
X145.91Y-107.85
X148.45Y-92.61
X148.45Y-107.85
X150.99Y-92.61
X150.99Y-107.85
X153.53Y-92.61
X153.53Y-107.85
X156.07Y-92.61
X156.07Y-107.85
X158.61Y-92.61
X158.61Y-107.85
X161.15Y-92.61
X161.15Y-107.85
X163.69Y-92.61
X163.69Y-107.85
T3
X156.49Y-113.892
X156.49Y-116.432
T4
X113.26Y-73.52
X113.26Y-76.06
X115.8Y-73.52
X115.8Y-76.06
X118.34Y-73.52
X118.34Y-76.06
X120.88Y-73.52
X120.88Y-76.06
X123.42Y-73.52
X123.42Y-76.06
X125.96Y-73.52
X125.96Y-76.06
X128.5Y-73.52
X128.5Y-76.06
X131.04Y-73.52
X131.04Y-76.06
X133.58Y-73.52
X133.58Y-76.06
X136.12Y-73.52
X136.12Y-76.06
X138.66Y-73.52
X138.66Y-76.06
X141.2Y-73.52
X141.2Y-76.06
X143.74Y-73.52
X143.74Y-76.06
X146.28Y-73.52
X146.28Y-76.06
X148.82Y-73.52
X148.82Y-76.06
X151.36Y-73.52
X151.36Y-76.06
X153.9Y-73.52
X153.9Y-76.06
X156.44Y-73.52
X156.44Y-76.06
X158.98Y-73.52
X158.98Y-76.06
X161.52Y-73.52
X161.52Y-76.06
T5
X116.76Y-114.27
X119.3Y-114.27
X121.84Y-114.27
X132.46Y-114.18
X135.Y-114.18
X137.54Y-114.18
T6
X115.088Y-123.036
X120.088Y-123.036
X126.518Y-123.036
X131.518Y-123.036
X149.378Y-123.036
X154.378Y-123.036
X165.126Y-111.86
X165.126Y-116.86
X165.38Y-83.365
X165.38Y-88.365
T7
X108.42Y-74.82
X108.42Y-123.82
X166.42Y-74.82
X166.42Y-123.82
T0
M30
